<?xml version="1.0" encoding="UTF-8" standalone="no"?>
<!-- Created with Inkscape (http://www.inkscape.org/) -->

<svg
   xmlns:dc="http://purl.org/dc/elements/1.1/"
   xmlns:cc="http://creativecommons.org/ns#"
   xmlns:rdf="http://www.w3.org/1999/02/22-rdf-syntax-ns#"
   xmlns:svg="http://www.w3.org/2000/svg"
   xmlns="http://www.w3.org/2000/svg"
   xmlns:sodipodi="http://sodipodi.sourceforge.net/DTD/sodipodi-0.dtd"
   xmlns:inkscape="http://www.inkscape.org/namespaces/inkscape"
   width="66.140297mm"
   height="66.140297mm"
   viewBox="0 0 234.35538 234.35538"
   id="svg2"
   version="1.1"
   inkscape:version="0.91 r13725"
   sodipodi:docname="red_circle_i.svg">
  <defs
     id="defs4" />
  <sodipodi:namedview
     id="base"
     pagecolor="#ffffff"
     bordercolor="#666666"
     borderopacity="1.0"
     inkscape:pageopacity="0.0"
     inkscape:pageshadow="2"
     inkscape:zoom="1.979899"
     inkscape:cx="210.28557"
     inkscape:cy="151.80404"
     inkscape:document-units="px"
     inkscape:current-layer="layer1"
     showgrid="false"
     fit-margin-top="0"
     fit-margin-left="0"
     fit-margin-right="0"
     fit-margin-bottom="0"
     inkscape:showpageshadow="false"
     inkscape:window-width="1916"
     inkscape:window-height="1041"
     inkscape:window-x="0"
     inkscape:window-y="18"
     inkscape:window-maximized="0" />
  <metadata
     id="metadata7">
    <rdf:RDF>
      <cc:Work
         rdf:about="">
        <dc:format>image/svg+xml</dc:format>
        <dc:type
           rdf:resource="http://purl.org/dc/dcmitype/StillImage" />
        <dc:title />
      </cc:Work>
    </rdf:RDF>
  </metadata>
  <g
     inkscape:label="Layer 1"
     inkscape:groupmode="layer"
     id="layer1"
     transform="translate(-97.984795,-117.97109)">
    <path
       style="fill:#cf2c2c;fill-opacity:1;stroke:none;stroke-width:10;stroke-miterlimit:4;stroke-dasharray:none;stroke-opacity:1"
       d="M 117.17773 0 A 117.1777 117.1777 0 0 0 0 117.17773 A 117.1777 117.1777 0 0 0 117.17773 234.35547 A 117.1777 117.1777 0 0 0 234.35547 117.17773 A 117.1777 117.1777 0 0 0 117.17773 0 z M 90.214844 24.369141 L 144.14062 24.369141 L 137.77344 142.45508 L 96.582031 142.45508 L 90.214844 24.369141 z M 117.05273 162.17773 C 125.54092 162.17773 131.94808 164.29888 136.27539 168.54297 C 140.68592 172.70384 142.89258 178.57174 142.89258 186.14453 C 142.89258 193.6341 140.6043 199.50005 136.02734 203.74414 C 131.5336 207.90501 125.20805 209.98633 117.05273 209.98633 C 108.8142 209.98633 102.36526 207.90501 97.705078 203.74414 C 93.044905 199.50005 90.714844 193.6341 90.714844 186.14453 C 90.714844 178.57174 92.961338 172.70384 97.455078 168.54297 C 101.94882 164.29888 108.48133 162.17773 117.05273 162.17773 z "
       transform="translate(97.984795,117.97109)"
       id="path3336" />
    <g
       style="font-style:normal;font-variant:normal;font-weight:800;font-stretch:normal;font-size:201.4413147px;line-height:125%;font-family:'Open Sans';-inkscape-font-specification:'Open Sans Ultra-Bold';letter-spacing:0px;word-spacing:0px;fill:#ffffff;fill-opacity:1;stroke:none;stroke-width:1px;stroke-linecap:butt;stroke-linejoin:miter;stroke-opacity:1"
       id="text4766" />
  </g>
</svg>