<?xml version="1.0" encoding="utf-8"?>
<!-- Generator: Adobe Illustrator 16.0.0, SVG Export Plug-In . SVG Version: 6.00 Build 0)  -->
<!DOCTYPE svg PUBLIC "-//W3C//DTD SVG 1.1//EN" "http://www.w3.org/Graphics/SVG/1.1/DTD/svg11.dtd">
<svg version="1.1" id="Layer_1" xmlns="http://www.w3.org/2000/svg" xmlns:xlink="http://www.w3.org/1999/xlink" x="0px" y="0px" fill="white"
	 width="512px" height="512px" viewBox="0 0 512 512" enable-background="new 0 0 512 512" xml:space="preserve">
<g>
	<path d="M501.255,414.849L379.817,313.63c-17.188,26.438-39.75,49-66.156,66.188l101.188,121.438
		c11.25,13.5,30.656,14.406,43.094,1.969l45.281-45.281C515.661,445.505,514.755,426.099,501.255,414.849z"/>
	<path d="M384.005,192.004c0-106.031-85.969-192-192-192c-106.031,0-192,85.969-192,192c0,106.032,85.969,192,192,192
		C298.036,384.005,384.005,298.036,384.005,192.004z M192.004,336.005c-79.406,0-144-64.594-144-144c0-79.406,64.594-144,144-144
		c79.407,0,144,64.594,144,144C336.005,271.411,271.411,336.005,192.004,336.005z"/>
</g>
</svg>
