<?xml version="1.0" encoding="UTF-8" standalone="no"?>
<!-- Generator: Adobe Illustrator 19.1.0, SVG Export Plug-In . SVG Version: 6.00 Build 0)  -->

<svg
   xmlns:dc="http://purl.org/dc/elements/1.1/"
   xmlns:cc="http://creativecommons.org/ns#"
   xmlns:rdf="http://www.w3.org/1999/02/22-rdf-syntax-ns#"
   xmlns:svg="http://www.w3.org/2000/svg"
   xmlns="http://www.w3.org/2000/svg"
   xmlns:sodipodi="http://sodipodi.sourceforge.net/DTD/sodipodi-0.dtd"
   xmlns:inkscape="http://www.inkscape.org/namespaces/inkscape"
   version="1.1"
   x="0px"
   y="0px"
   width="24px"
   height="24px"
   viewBox="0 0 24 24"
   enable-background="new 0 0 24 24"
   xml:space="preserve"
   id="svg90"
   sodipodi:docname="remove.svg"
   inkscape:version="0.92.4 (33fec40, 2019-01-16)"><metadata
   id="metadata96"><rdf:RDF><cc:Work
       rdf:about=""><dc:format>image/svg+xml</dc:format><dc:type
         rdf:resource="http://purl.org/dc/dcmitype/StillImage" /><dc:title></dc:title></cc:Work></rdf:RDF></metadata><defs
   id="defs94" /><sodipodi:namedview
   pagecolor="#ffffff"
   bordercolor="#666666"
   borderopacity="1"
   objecttolerance="10"
   gridtolerance="10"
   guidetolerance="10"
   inkscape:pageopacity="0"
   inkscape:pageshadow="2"
   inkscape:window-width="1853"
   inkscape:window-height="1025"
   id="namedview92"
   showgrid="false"
   inkscape:zoom="34.958333"
   inkscape:cx="12.875987"
   inkscape:cy="11.000875"
   inkscape:window-x="67"
   inkscape:window-y="27"
   inkscape:window-maximized="1"
   inkscape:current-layer="svg90" />
<g
   id="Bounding_Boxes">
	<g
   id="ui_x5F_spec_x5F_header_copy_3"
   display="none">
	</g>
	<path
   fill="none"
   d="M0,0h24v24H0V0z"
   id="path81" />
</g>
<g
   id="Sharp">
	<g
   id="ui_x5F_spec_x5F_header_copy_4"
   display="none">
	</g>
	<g
   id="g87">
		<path
   d="M12,2C6.48,2,2,6.48,2,12c0,5.52,4.48,10,10,10s10-4.48,10-10C22,6.48,17.52,2,12,2z M13,17h-2v-6h2V17z M13,9h-2V7h2V9z"
   fill="#C65353"
   id="path85" />
	</g>
</g>
<path
   style="fill:#c65353;fill-opacity:0.97918923;stroke-width:0.02860548"
   d="m 11.01025,14.010965 v -2.989273 h 0.986889 0.98689 v 2.989273 2.989273 h -0.98689 -0.986889 z"
   id="path98"
   inkscape:connector-curvature="0" /><path
   style="fill:#c65353;fill-opacity:0.97918923;stroke-width:0.02860548"
   d="M 11.01025,8.0038141 V 7.0169249 h 0.986889 0.98689 v 0.9868892 0.9868891 h -0.98689 -0.986889 z"
   id="path100"
   inkscape:connector-curvature="0" /><path
   style="fill:#c65353;fill-opacity:0.97918923;stroke-width:0.02860548"
   d="M 11.210489,21.960107 C 10.252136,21.848602 9.8719323,21.778075 9.2178734,21.59048 6.1890814,20.721777 3.693492,18.387624 2.6163023,15.415957 2.2635446,14.442796 2.081808,13.534839 2.0296957,12.485269 1.8746522,9.3626054 3.190528,6.3583695 5.5961667,4.3427684 7.1150829,3.0701213 8.9434799,2.292402 10.953039,2.0641915 c 0.494512,-0.056158 1.693814,-0.048685 2.202623,0.013724 3.237645,0.3971246 6.001677,2.2553652 7.591907,5.1039907 1.157494,2.0734513 1.526444,4.6375848 1.003334,6.9729878 -0.184547,0.8239 -0.407357,1.456517 -0.785529,2.230326 -1.366594,2.796302 -3.948617,4.791958 -6.994456,5.406046 -0.662092,0.133488 -0.987153,0.163859 -1.845054,0.172386 -0.448391,0.0045 -0.86031,0.0029 -0.915375,-0.0035 z m 0.78665,-10.938415 h 0.986626 l 0.0074,2.996425 0.0074,2.996424 0.007,-3.010727 0.007,-3.010727 H 11.99707 10.981576 l 0.007,3.010727 0.007,3.010727 0.0074,-2.996424 0.0074,-2.996425 z M 13.012634,8.0038141 V 6.9883194 h -1.015495 -1.015494 v 1.0154947 1.0154946 h 1.015494 1.015495 z"
   id="path102"
   inkscape:connector-curvature="0" /><path
   style="fill:#c65353;fill-opacity:0.97918923;stroke-width:0.02860548"
   d="M 11.210489,21.958842 C 9.6987919,21.813976 8.3913786,21.422811 7.1956048,20.757627 4.7717016,19.409261 3.0105214,17.143742 2.3288888,14.497259 2.1105149,13.649408 2.0229974,12.934093 2.0226536,11.994279 2.0220647,10.384213 2.3558423,8.9637657 3.0713231,7.5314901 3.5779031,6.5173994 4.1145026,5.7825895 4.9721152,4.9285791 6.032497,3.8726508 7.0903163,3.1857591 8.4643623,2.6608993 10.268474,1.9717623 12.295646,1.8274735 14.189092,2.2534281 c 3.680746,0.8280305 6.601787,3.6852317 7.504356,7.3403482 0.205883,0.8337637 0.283797,1.4973887 0.283513,2.4148057 -2.57e-4,0.790662 -0.04626,1.257272 -0.197488,2.002383 -0.87238,4.298432 -4.499258,7.539545 -8.881261,7.936623 -0.298466,0.02705 -1.443276,0.03468 -1.687723,0.01125 z m 1.802145,-8.319748 v -2.646007 h -1.015495 -1.015494 l 0.007,2.424315 0.007,2.424314 0.0075,-2.410012 0.0075,-2.410012 h 0.986727 0.986727 v 2.631705 c 0,1.447437 0.0064,2.631704 0.0143,2.631704 0.0079,0 0.0143,-1.190703 0.0143,-2.646007 z m 0,-5.6352799 V 6.9883194 h -1.015495 -1.015494 v 1.0154947 1.0154946 h 1.015494 1.015495 z"
   id="path104"
   inkscape:connector-curvature="0" /><path
   style="fill:#c65353;fill-opacity:0.97918923;stroke-width:0.02860548"
   d="M 11.01025,8.0038141 V 7.0169249 h 0.986889 0.98689 v 0.9868892 0.9868891 h -0.98689 -0.986889 z"
   id="path106"
   inkscape:connector-curvature="0" /><path
   style="fill:#c65353;fill-opacity:0.97918923;stroke-width:0.02860548"
   d="M 11.01025,8.0038141 V 7.0169249 h 0.986889 0.98689 v 0.9868892 0.9868891 h -0.98689 -0.986889 z"
   id="path108"
   inkscape:connector-curvature="0" /><path
   style="fill:#c65353;fill-opacity:0.97918923;stroke-width:0.02860548"
   d="M 11.01025,8.0038141 V 7.0169249 h 0.986889 0.98689 v 0.9868892 0.9868891 h -0.98689 -0.986889 z"
   id="path110"
   inkscape:connector-curvature="0" /><path
   style="fill:#c65353;fill-opacity:0.97918923;stroke-width:0.02860548"
   d="M 11.01025,8.0038141 V 7.0169249 h 0.986889 0.98689 v 0.9868892 0.9868891 h -0.98689 -0.986889 z"
   id="path112"
   inkscape:connector-curvature="0" /><path
   style="fill:#c65353;fill-opacity:0.97918923;stroke-width:0.02860548"
   d="M 11.01025,8.0038141 V 7.0169249 h 0.986889 0.98689 v 0.9868892 0.9868891 h -0.98689 -0.986889 z"
   id="path114"
   inkscape:connector-curvature="0" /><path
   style="fill:#c65353;fill-opacity:0.97918923;stroke-width:0.02860548"
   d="M 11.01025,8.0038141 V 7.0169249 h 0.986889 0.98689 v 0.9868892 0.9868891 h -0.98689 -0.986889 z"
   id="path116"
   inkscape:connector-curvature="0" /><path
   style="fill:#c65353;fill-opacity:0.97918923;stroke-width:0.02860548"
   d="M 11.01025,8.0038141 V 7.0169249 h 0.986889 0.98689 v 0.9868892 0.9868891 h -0.98689 -0.986889 z"
   id="path118"
   inkscape:connector-curvature="0" /><path
   style="fill:#c65353;fill-opacity:0.97918923;stroke-width:0.02860548"
   d="M 10.913052,21.931895 C 8.0771791,21.606243 5.5900239,20.156137 3.9027884,17.844644 2.8772583,16.43968 2.2454722,14.76789 2.0540227,12.952563 2.0043327,12.481401 2.012115,11.428737 2.0690378,10.921573 2.2344772,9.4475608 2.7016104,8.0697291 3.4592181,6.8211699 4.1828582,5.6285901 5.241489,4.5175986 6.4047676,3.7299314 8.9613528,1.9988427 12.156246,1.5468729 15.093357,2.5007885 c 2.747685,0.8923938 5.00207,2.971523 6.124927,5.6487779 0.9988,2.3814606 1.024467,5.1223816 0.07043,7.5205166 -1.395666,3.50823 -4.631982,5.934064 -8.376195,6.278514 -0.435588,0.04007 -1.588958,0.03044 -1.999463,-0.0167 z m 2.099582,-8.564553 v -2.374255 h -1.015495 -1.015494 l 0.0069,1.480334 0.0069,1.480333 0.0077,-1.466031 0.0077,-1.466031 h 0.986629 0.98663 v 2.359953 c 0,1.297974 0.0064,2.359952 0.0143,2.359952 0.0079,0 0.0143,-1.068415 0.0143,-2.374255 z m 0,-5.3635279 V 6.9883194 h -1.015495 -1.015494 v 1.0154947 1.0154946 h 1.015494 1.015495 z"
   id="path120"
   inkscape:connector-curvature="0" /><path
   style="fill:#c65353;fill-opacity:0.97918923;stroke-width:0.02860548"
   d="M 11.024553,21.946365 C 7.9373778,21.627751 5.2071184,19.938848 3.544475,17.319284 2.2867778,15.33773 1.7752002,12.913315 2.1160205,10.549702 2.3570794,8.8779418 3.0668474,7.210766 4.1010723,5.8870083 4.6259208,5.2152277 5.3484692,4.5029121 6.0049347,4.0101083 7.4010988,2.9620182 9.0000063,2.3175789 10.799099,2.077821 11.270258,2.015032 12.617172,2.006684 13.084148,2.06366 c 1.8414,0.2246679 3.470018,0.8690266 4.891694,1.9353869 2.869033,2.151983 4.35407,5.6032328 3.944919,9.1680571 -0.344956,3.005516 -2.056334,5.692037 -4.668058,7.327917 -1.272757,0.797205 -2.825407,1.318696 -4.325885,1.452944 -0.380448,0.03404 -1.566615,0.03304 -1.902265,-0.0016 z m 1.988081,-8.807867 v -2.145411 h -1.015495 -1.015494 l 0.0067,0.879619 0.0067,0.879618 0.008,-0.865316 0.008,-0.865316 h 0.98647 0.98647 v 2.131109 c 0,1.17211 0.0064,2.131108 0.0143,2.131108 0.0079,0 0.0143,-0.965435 0.0143,-2.145411 z m 0,-5.1346839 V 6.9883194 h -1.015495 -1.015494 v 1.0154947 1.0154946 h 1.015494 1.015495 z"
   id="path122"
   inkscape:connector-curvature="0" /><path
   style="fill:#c65353;fill-opacity:0.97918923;stroke-width:0.02860548"
   d="M 11.138975,21.958668 C 10.559297,21.888738 10.274992,21.845168 9.9375447,21.774549 7.2795029,21.218288 4.9863561,19.608743 3.5022941,17.257688 3.2603334,16.874373 2.8143926,15.971041 2.6479466,15.527056 1.7381577,13.100247 1.8076625,10.383885 2.8402753,8.0105283 3.2851373,6.9880574 3.95022,5.9777598 4.6902259,5.2003497 5.6295124,4.2135867 6.4727414,3.5877104 7.6205006,3.0253895 8.6181019,2.5366353 9.6070241,2.2401671 10.781406,2.0777838 c 0.456006,-0.063052 1.863133,-0.071908 2.317045,-0.014583 1.724989,0.2178536 3.215927,0.7765095 4.576877,1.714961 1.876067,1.2936538 3.276301,3.2328752 3.917411,5.4253276 0.521376,1.7829896 0.527177,3.7604036 0.01624,5.5355406 -0.167615,0.582339 -0.353771,1.059084 -0.642791,1.646191 -0.505489,1.026834 -1.028261,1.771256 -1.808501,2.575288 -1.657394,1.707933 -3.86475,2.76881 -6.216566,2.987743 -0.2892,0.02692 -1.602402,0.03451 -1.802145,0.01042 z m 1.873659,-9.049014 v -1.916567 h -1.015495 -1.015494 l 0.0064,0.52205 0.0064,0.52205 0.0085,-0.507747 0.0085,-0.507748 h 0.986229 0.98623 v 1.902265 c 0,1.046246 0.0064,1.902265 0.0143,1.902265 0.0079,0 0.0143,-0.862456 0.0143,-1.916568 z m 0,-4.9058399 V 6.9883194 h -1.015495 -1.015494 v 1.0154947 1.0154946 h 1.015494 1.015495 z"
   id="path124"
   inkscape:connector-curvature="0" /><path
   style="fill:#c65353;fill-opacity:0.97918923;stroke-width:0.02860548"
   d="M 10.867223,21.933715 C 8.2472178,21.608375 5.9254278,20.341835 4.281718,18.341313 3.0579185,16.851855 2.301236,15.068031 2.0686619,13.124195 2.0099037,12.633099 2.0022026,11.502478 2.0542436,11.00739 2.2847343,8.8146293 3.1859697,6.8182241 4.6637926,5.22675 6.1483475,3.6280263 7.9825879,2.606231 10.12348,2.1853367 c 0.674752,-0.1326545 0.9749,-0.157681 1.887962,-0.1574192 0.93159,2.671e-4 1.210223,0.02482 1.945173,0.1714054 2.408359,0.4803468 4.551168,1.8325757 6.032234,3.8066677 1.048323,1.3972934 1.690454,2.9764837 1.925067,4.7343064 0.0754,0.564929 0.09002,1.771937 0.028,2.312385 -0.271024,2.361956 -1.305872,4.480781 -2.982831,6.10727 -1.539956,1.49361 -3.368612,2.395611 -5.545977,2.735603 -0.508693,0.07943 -2.029902,0.102233 -2.545888,0.03816 z m 2.145411,-9.209996 v -1.730632 h -1.015495 -1.015494 l 0.006,0.307509 0.006,0.307509 0.0093,-0.293206 0.0093,-0.293207 h 0.985888 0.985889 v 1.716329 c 0,0.943981 0.0064,1.716329 0.0143,1.716329 0.0079,0 0.0143,-0.778784 0.0143,-1.730631 z M 11.003055,7.481764 c -0.0047,-0.279261 -0.0085,-0.050775 -0.0085,0.5077473 0,0.5585221 0.0038,0.7870084 0.0085,0.5077473 0.0047,-0.279261 0.0047,-0.7362336 0,-1.0154946 z"
   id="path126"
   inkscape:connector-curvature="0" /><path
   style="fill:#c65353;fill-opacity:0.97918923;stroke-width:0.02860548"
   d="M 11.096067,21.958218 C 9.3255364,21.777521 7.6806136,21.174263 6.2793194,20.191725 5.3312848,19.526997 4.4143025,18.602669 3.7658917,17.658164 2.132349,15.278671 1.6083411,12.344868 2.3148683,9.5342074 2.8711336,7.321309 4.1890622,5.3676343 6.0805447,3.9520336 7.5306983,2.8667273 9.4013564,2.171578 11.235151,2.0365469 c 0.546146,-0.040215 1.547081,-0.017921 2.02063,0.045006 2.229387,0.2962506 4.223868,1.2759075 5.793921,2.8458818 1.646087,1.6460038 2.618661,3.6713386 2.892147,6.0227443 0.04881,0.419687 0.04871,1.712239 -1.71e-4,2.116806 -0.237831,1.968588 -0.935715,3.653764 -2.144202,5.177592 -0.336659,0.424505 -1.115548,1.206749 -1.535743,1.542356 -1.496259,1.195053 -3.32114,1.952317 -5.173549,2.146848 -0.379141,0.03982 -1.684543,0.05583 -1.992125,0.02444 z m 1.916567,-9.391829 v -1.573302 h -1.015495 -1.015494 l 0.0055,0.193087 0.0055,0.193087 0.01016,-0.178784 0.01016,-0.178785 h 0.985525 0.985524 v 1.558999 c 0,0.85745 0.0064,1.558999 0.0143,1.558999 0.0079,0 0.0143,-0.707986 0.0143,-1.573301 z M 11.002521,8.2261445 c -0.0062,-0.05935 -0.01136,-0.017801 -0.01149,0.09233 -1.14e-4,0.1101311 0.0049,0.15869 0.01126,0.1079084 0.0063,-0.050781 0.0064,-0.1408885 2.29e-4,-0.2002383 z m -0.0019,-0.7300778 c -0.0079,-0.019666 -0.01443,-0.00358 -0.01443,0.035757 0,0.039332 0.0065,0.055423 0.01443,0.035757 0.0079,-0.019666 0.0079,-0.051848 0,-0.071514 z"
   id="path128"
   inkscape:connector-curvature="0" /><path
   style="fill:#c65353;fill-opacity:0.97918923;stroke-width:0.02860548"
   d="M 10.867223,21.936269 C 8.9191123,21.687321 7.2604909,20.992614 5.7468415,19.791617 5.31117,19.445936 4.5605141,18.6998 4.2192078,18.273182 3.6683012,17.584573 3.1183404,16.661249 2.7709513,15.841716 2.4219424,15.018363 2.1648592,14.005304 2.0522907,13.009774 1.9985211,12.534248 2.0071756,11.349597 2.0679639,10.864362 2.2857732,9.1257271 2.881101,7.5712045 3.8445769,6.2252613 5.4105311,4.0376766 7.7272405,2.5859861 10.36478,2.1395883 c 1.164186,-0.1970361 2.543,-0.1656533 3.725203,0.084788 2.439993,0.5168957 4.651491,1.983047 6.089525,4.0371572 0.636349,0.9089701 1.125974,1.9340605 1.433097,3.0003645 0.448854,1.55838 0.500377,3.365848 0.14049,4.928551 -0.417847,1.814379 -1.286935,3.422462 -2.560382,4.737504 -0.835852,0.863154 -1.689565,1.489694 -2.747421,2.016332 -0.973231,0.484509 -1.908435,0.7799 -3.016977,0.952933 -0.484046,0.07556 -2.084473,0.09996 -2.561092,0.03905 z m 2.145411,-9.512908 v -1.430274 h -1.015495 -1.015494 l 0.0048,0.121573 0.0048,0.121574 0.01122,-0.107271 0.01122,-0.107271 h 0.985162 0.985163 v 1.415972 c 0,0.778784 0.0064,1.415971 0.0143,1.415971 0.0079,0 0.0143,-0.643623 0.0143,-1.430274 z"
   id="path130"
   inkscape:connector-curvature="0" /><path
   style="fill:#c65353;fill-opacity:0.97918923;stroke-width:0.02860548"
   d="M 10.838617,21.933712 C 8.9584917,21.699331 7.2123287,20.964724 5.7325387,19.785596 5.330243,19.465038 4.5440234,18.679319 4.2191618,18.273182 3.6361821,17.54435 3.0261573,16.500445 2.7063526,15.684386 2.4054364,14.916526 2.1943882,14.099282 2.0821351,13.267223 2.000998,12.665807 1.9932362,11.442246 2.0668079,10.851075 2.3993843,8.1787211 3.6935422,5.8543043 5.782177,4.177958 c 2.3482003,-1.8846745 5.462725,-2.591634 8.45982,-1.9202772 3.604827,0.8074901 6.536168,3.676635 7.448877,7.2908293 0.216037,0.8554769 0.289201,1.4892709 0.287285,2.4886769 -0.0017,0.876079 -0.0331,1.208207 -0.185868,1.96449 -0.603234,2.986392 -2.583577,5.563158 -5.332696,6.938754 -0.961744,0.481234 -1.909574,0.780247 -3.032181,0.956566 -0.495461,0.07782 -2.078936,0.100275 -2.588797,0.03672 z m 2.174017,-9.653378 v -1.287247 h -1.015495 -1.015494 l 0.0043,0.09297 c 0.004,0.08653 0.0051,0.08752 0.0162,0.0143 l 0.01192,-0.07867 h 0.984989 0.98499 v 1.272944 c 0,0.70012 0.0064,1.272944 0.0143,1.272944 0.0079,0 0.0143,-0.579261 0.0143,-1.287246 z"
   id="path132"
   inkscape:connector-curvature="0" /><path
   style="fill:#c65353;fill-opacity:0.97918923;stroke-width:0.02860548"
   d="M 11.053159,21.958807 C 9.236981,21.742652 7.7963062,21.218977 6.3761621,20.258751 5.443121,19.627879 4.505942,18.708239 3.8421595,17.772173 3.1245736,16.760233 2.57949,15.567447 2.286696,14.36841 1.8759245,12.686238 1.9164808,10.862284 2.40154,9.2034897 2.5725122,8.6188033 2.7836596,8.0870566 3.071009,7.5175209 3.5851016,6.498573 4.1341035,5.7402488 4.9456005,4.9281892 6.4926908,3.3800262 8.4254451,2.4177663 10.638379,2.093927 11.150644,2.018963 12.245551,1.99063 12.826698,2.037301 c 4.254102,0.3416374 7.841557,3.3994616 8.879311,7.5684204 0.174875,0.7025216 0.253954,1.2975776 0.27941,2.1025026 0.08545,2.701941 -0.921294,5.297291 -2.805632,7.23281 -0.832905,0.855528 -1.64786,1.457343 -2.675738,1.975937 -1.138108,0.574208 -2.32525,0.921743 -3.52002,1.030485 -0.299879,0.02729 -1.726453,0.03568 -1.93087,0.01135 z m 1.959475,-9.778592 v -1.187128 h -1.015495 -1.015494 l 0.0033,0.06436 c 0.0025,0.04843 0.0066,0.05197 0.0164,0.0143 0.01214,-0.04645 0.08403,-0.05006 0.997874,-0.05006 h 0.984792 v 1.172825 c 0,0.645054 0.0064,1.172825 0.0143,1.172825 0.0079,0 0.0143,-0.534207 0.0143,-1.187127 z"
   id="path134"
   inkscape:connector-curvature="0" /><path
   style="fill:#c65353;fill-opacity:0.97918923;stroke-width:0.02860548"
   d="m 12.996258,11.651013 c 0,-0.353993 0.0041,-0.498808 0.0091,-0.321812 0.005,0.176997 0.005,0.466627 0,0.643624 -0.005,0.176996 -0.0091,0.03218 -0.0091,-0.321812 z"
   id="path136"
   inkscape:connector-curvature="0" /><path
   style="fill:#c65353;fill-opacity:0.97918923;stroke-width:0.02860548"
   d="M 10.817347,21.934096 C 8.9566395,21.69941 7.2086995,20.960931 5.7325387,19.78584 5.3472037,19.479096 4.5208944,18.65603 4.2282786,18.287485 2.8302794,16.526726 2.0870499,14.528681 2.010408,12.325119 1.8807595,8.5975415 3.8606899,5.1008258 7.1404972,3.2649706 8.2147337,2.6636722 9.4398737,2.2573656 10.712557,2.0803291 c 0.44413,-0.061781 1.589242,-0.085031 2.114141,-0.042926 1.752006,0.1405387 3.475852,0.763748 4.91175,1.7757076 0.692071,0.4877419 1.535694,1.2761496 2.035488,1.9022646 1.184047,1.4833102 1.903751,3.1752644 2.153713,5.0631707 0.0699,0.527942 0.07017,1.942678 4.6e-4,2.44264 -0.267884,1.921371 -0.967116,3.574613 -2.124621,5.023391 -0.319183,0.399502 -0.963219,1.058404 -1.370115,1.401741 -1.406014,1.186387 -3.117042,1.96024 -4.977354,2.251124 -0.493747,0.0772 -2.136273,0.10002 -2.638672,0.03665 z m 2.195287,-9.854001 v -1.087008 h -1.015495 c -0.948927,0 -1.015346,0.0033 -1.013236,0.05006 0.0014,0.02991 0.0081,0.03566 0.01669,0.0143 0.01115,-0.02763 0.238094,-0.03576 0.998933,-0.03576 h 0.984506 v 1.072706 c 0,0.589988 0.0064,1.072706 0.0143,1.072706 0.0079,0 0.0143,-0.489154 0.0143,-1.087009 z"
   id="path138"
   inkscape:connector-curvature="0" /><path
   style="fill:#c65353;fill-opacity:0.97918923;stroke-width:0.02860548"
   d="M 11.01025,21.958345 C 10.482106,21.905114 9.6390453,21.731819 9.0710114,21.559726 7.9342075,21.215317 6.6980753,20.558785 5.7325387,19.786603 5.3416946,19.474028 4.5148714,18.650206 4.2279582,18.287485 2.9896231,16.721958 2.2863607,15.033682 2.0533245,13.066985 2.0047152,12.656749 2.0040355,11.361972 2.0522132,10.950179 2.327552,8.5967559 3.301616,6.5685672 4.9445089,4.9278616 6.4967282,3.3777089 8.3863812,2.434536 10.624076,2.0930475 c 0.483003,-0.07371 1.665188,-0.1034842 2.228258,-0.056121 3.440214,0.2893775 6.499296,2.3588656 8.074228,5.4622665 0.757234,1.4921275 1.11071,3.102245 1.059044,4.824049 -0.06442,2.146828 -0.774478,4.101513 -2.125001,5.849821 -0.311485,0.40323 -1.209201,1.31209 -1.603736,1.623644 -1.556041,1.228766 -3.390642,1.97949 -5.258538,2.151809 -0.287357,0.02651 -1.750798,0.03374 -1.988081,0.0098 z m 2.002384,-9.964066 V 10.993087 H 12.01313 c -0.549727,0 -1.005478,0.0097 -1.01278,0.02145 -0.0073,0.0118 0.436038,0.01791 0.985201,0.01359 l 0.998478,-0.0079 v 0.987608 c 0,0.543183 0.0064,0.987607 0.0143,0.987607 0.0079,0 0.0143,-0.450537 0.0143,-1.001192 z"
   id="path140"
   inkscape:connector-curvature="0" /><path
   style="fill:#c65353;fill-opacity:0.97918923"
   id="path180"
   d="m 13.269562,10.562574 c 0.24135,0.175603 0.475313,0.360548 0.695961,0.561571 0.06789,0.07468 0.251656,0.219774 0.250425,0.332953 -1.95e-4,0.01786 -0.0075,0.03492 -0.01124,0.05239 -0.04718,0.08117 -0.128101,0.124218 -0.206947,0.169717 -0.156666,0.09041 -0.313745,0.180103 -0.471154,0.26921 -0.04577,0.02591 -0.184078,0.101881 -0.13838,0.07584 0.06381,-0.03637 0.128491,-0.07121 0.192736,-0.106816 -0.281327,0.162685 -0.533621,0.371887 -0.815154,0.53392 -0.162479,0.09351 -0.327033,0.183371 -0.490549,0.275056 -0.04389,0.0163 -0.08584,0.03935 -0.13168,0.0489 -0.133928,0.02791 -0.241926,-0.02544 -0.259555,-0.172422 -0.01832,-0.152703 0.0445,-0.283183 0.08972,-0.424422 0.211087,-0.49396 0.49047,-0.960514 0.8265,-1.379888 0.04962,-0.06192 0.102799,-0.120897 0.154199,-0.181345 0.04181,-0.04434 0.08109,-0.09121 0.125424,-0.133029 0.135477,-0.127812 0.41117,-0.258072 0.533099,-0.298492 0.02668,-0.0088 0.04911,0.03125 0.06368,0.05528 0.04666,0.07699 0.04293,0.180799 0.0498,0.264408 -0.0044,0.286862 -0.04311,0.573271 -0.1074,0.852762 -0.03913,0.170117 -0.06636,0.250052 -0.116508,0.415455 -0.07773,0.249364 -0.168947,0.494787 -0.276314,0.732942 -0.08561,0.160947 -0.336433,0.398984 -0.484401,0.241304 -0.08148,-0.08683 -0.124989,-0.231031 -0.166405,-0.338682 -0.07862,-0.260968 -0.149858,-0.530411 -0.146508,-0.804753 0.0078,-0.08844 0.04376,-0.160096 0.12264,-0.204351 0.40315,-0.226179 0.267967,-0.178935 0.467114,-0.243226 0.09211,-0.02706 0.179022,-0.06396 0.264315,-0.107701 -0.63824,0.349753 -0.339788,0.235607 -0.25872,0.117979 0.0328,-0.0476 0.04748,-0.101811 0.06255,-0.156679 0.04481,-0.221651 -0.02485,-0.231447 0.407204,-0.278627 0.03272,-0.0036 0.0065,0.06551 0.009,0.09833 0.0033,0.04388 0.0056,0.08783 0.0085,0.131744 0.0094,0.329297 0.03314,0.657678 0.05686,0.986162 0.01554,0.207469 0.02747,0.415208 0.03297,0.623189 0.0081,0.286911 -0.0034,0.269017 -0.422707,0.399901 -0.02428,0.0076 -0.03742,-0.03447 -0.05614,-0.0517 -0.182595,-0.209767 -0.247127,-0.433522 -0.293074,-0.70157 -0.03195,-0.267915 0.01816,-0.536164 0.04733,-0.802137 0.02643,-0.18362 0.01893,-0.370292 0.03937,-0.554268 0.128315,-0.05689 0.248766,-0.136667 0.384946,-0.170677 0.02382,-0.0059 0.0032,0.049 0.004,0.07354 0.0011,0.03636 0.0013,0.07276 0.0017,0.109136 0.0017,0.155377 0.0016,0.310535 -8.47e-4,0.465901 -0.0074,0.290679 -0.01382,0.581372 -0.01696,0.87213 -0.0013,0.156222 -8.81e-4,0.312449 -5.43e-4,0.468674 -0.0024,0.09328 0.0118,0.185699 0.02148,0.278194 0.01965,0.23822 -0.0076,0.192133 -0.391103,0.32515 -0.01768,0.0061 -0.01943,-0.03199 -0.02914,-0.04798 -0.0079,-0.02291 -0.01776,-0.04525 -0.0238,-0.06874 -0.03241,-0.126004 -0.03588,-0.261293 -0.04104,-0.390307 -0.0068,-0.169673 -0.0063,-0.2727 -0.008,-0.447175 -4.39e-4,-0.692772 0.0012,-1.385537 0.0068,-2.078287 0.0071,-0.225516 -0.005,-0.4524713 0.01349,-0.6776991 0.0027,-0.032735 0.0069,-0.065473 0.01399,-0.097536 0.0034,-0.015391 0.0035,-0.036536 0.01744,-0.043967 0.130417,-0.069697 0.269817,-0.1210958 0.404725,-0.1816437 0.01491,0.028176 0.03236,0.055151 0.04474,0.084527 0.07563,0.1794385 0.108998,0.3784773 0.141954,0.568736 0.04278,0.2469868 0.05985,0.3865258 0.09483,0.6386168 0.07,0.601701 0.123644,1.2073 0.122143,1.81362 -2.92e-4,0.117701 -0.005,0.23535 -0.0075,0.353026 -0.0094,0.282589 -0.02696,0.566228 -0.07993,0.84452 -0.01698,0.08922 -0.04593,0.232302 -0.100247,0.314171 -0.02037,0.0307 -0.05341,0.05077 -0.08012,0.07615 -0.156094,0.06343 -0.301544,0.16606 -0.468282,0.190279 -0.05419,0.0079 -0.0908,-0.06299 -0.127362,-0.103759 -0.113053,-0.126065 -0.199099,-0.302033 -0.265704,-0.452866 -0.0977,-0.221246 -0.188324,-0.493672 -0.267951,-0.719529 -0.188754,-0.548948 -0.347765,-1.107726 -0.543243,-1.654423 -0.101909,-0.285011 -0.119115,-0.317485 -0.228606,-0.579483 -0.07563,-0.133611 -0.134627,-0.308337 -0.253258,-0.414926 -0.01823,-0.01638 -0.03974,-0.03431 -0.0642,-0.03585 -0.01801,-0.0011 -0.06269,0.03521 -0.04577,0.02892 0.106072,-0.03941 0.209435,-0.08576 0.314152,-0.128636 -0.01156,0.05165 -0.0282,0.102429 -0.03467,0.154964 -0.03337,0.270912 -0.0081,0.592579 0.0046,0.864079 0.01822,0.389692 0.02271,0.432055 0.04834,0.833871 0.04826,0.742675 0.09105,1.486566 0.183775,2.225332 0.03909,0.0042 0.0067,0.185162 0.077,0.205286 0.01741,0.005 0.05838,-0.04133 0.04132,-0.03526 -0.09876,0.03514 -0.184896,0.133764 -0.28921,0.123471 -0.05505,-0.0054 0.05844,-0.09416 0.08278,-0.14384 0.03121,-0.06369 0.05572,-0.130448 0.08359,-0.195672 0.130802,-0.360429 0.229054,-0.736952 0.234833,-1.122809 0.0047,-0.314103 -0.02531,-0.407933 -0.07621,-0.723501 -0.09304,-0.36774 -0.212178,-0.736628 -0.413992,-1.061284 -0.07429,-0.119516 -0.196045,-0.29953 -0.352511,-0.339581 -0.05648,-0.01446 -0.115749,0.01403 -0.173623,0.02105 0.06016,-0.02101 0.168521,-0.125623 0.180496,-0.06303 0.0171,0.0894 -0.109798,0.14673 -0.148743,0.229 -0.0484,0.102236 -0.08509,0.21052 -0.111398,0.320531 -0.06546,0.273725 -0.07901,0.558158 -0.05102,0.837743 0.0162,0.161824 0.05648,0.320325 0.08472,0.480487 0.05814,0.162568 0.104054,0.330043 0.174422,0.487704 0.225237,0.504654 0.566968,0.953957 0.9879,1.311777 0.370785,0.315191 0.494837,0.34868 0.921106,0.568437 0.163583,0.05339 0.323538,0.119541 0.490747,0.160174 0.446928,0.108608 0.926459,0.124192 1.364375,-0.03481 0.402297,-0.14607 0.412711,-0.06964 0.324537,-0.247072 0.07183,-0.108583 0.157791,-0.209041 0.215485,-0.32575 0.272503,-0.551241 0.24374,-1.226946 0.136595,-1.81459 -0.03059,-0.167792 -0.07741,-0.332218 -0.116118,-0.498326 -0.185258,-0.618693 -0.447265,-1.231902 -0.935446,-1.675493 -0.296456,-0.269379 -0.398266,-0.285567 -0.753862,-0.453696 -0.141195,-0.03384 -0.279487,-0.08371 -0.423584,-0.101517 -0.448252,-0.0554 -0.90396,0.05508 -1.276979,0.311564 -0.03497,0.02404 -0.03392,0.07895 -0.06057,0.111973 -0.09897,0.122595 -0.209743,0.235176 -0.314615,0.352764 -0.08145,0.132043 -0.175568,0.25707 -0.244363,0.396129 -0.197409,0.39903 -0.293288,0.85936 -0.214849,1.302143 0.06902,0.389635 0.14957,0.452069 0.351475,0.782442 0.106709,0.102324 0.201577,0.218639 0.320127,0.306972 0.521495,0.388572 1.244159,0.508513 1.875879,0.398881 0.16425,-0.02851 0.321273,-0.08914 0.481909,-0.133707 0.142682,-0.07592 0.299519,-0.129774 0.428046,-0.22777 0.03648,-0.02782 0.02016,-0.09081 0.04241,-0.130928 0.07641,-0.137827 0.189092,-0.25553 0.251954,-0.400039 0.145573,-0.334645 0.175592,-0.691909 0.149287,-1.051806 -0.0146,-0.199823 -0.06525,-0.395365 -0.09788,-0.593048 C 14.84127,11.292595 14.79058,11.092845 14.709655,10.904706 14.499473,10.416057 14.163429,9.9042915 13.67207,9.656687 13.283612,9.4609359 13.158845,9.5217361 12.742556,9.5431502 c -0.163367,0.058957 -0.332478,0.1039315 -0.490099,0.17687 -0.07088,0.0328 -0.129595,0.087673 -0.189606,0.1376605 -0.159566,0.1329141 -0.322634,0.2628453 -0.468578,0.4105883 -0.295526,0.299169 -0.565504,0.661431 -0.77259,1.027091 -0.102975,0.181828 -0.181088,0.376654 -0.271633,0.56498 -0.05883,0.184588 -0.132004,0.365202 -0.176475,0.553764 -0.105981,0.449379 -0.137995,0.964083 0.053,1.397907 0.141364,0.321086 0.238174,0.35182 0.496686,0.567051 0.120017,0.05093 0.234329,0.118268 0.360052,0.152791 0.434362,0.119271 0.908742,0.05762 1.320084,-0.112499 0.447301,-0.184989 0.375982,-0.139296 0.579956,-0.402805 0.127761,-0.144627 0.270111,-0.277575 0.383284,-0.433882 0.376329,-0.519761 0.599019,-1.145806 0.679468,-1.779534 0.07385,-0.581738 0.02377,-0.749573 -0.03459,-1.327816 -0.05453,-0.210831 -0.09242,-0.426686 -0.163604,-0.6324919 C 13.79831,9.1212039 13.312631,8.4068028 12.562922,8.1394498 12.393332,8.0789726 12.209733,8.0692321 12.033139,8.0341233 11.432695,8.0867615 11.460613,8.0369339 10.884622,8.2897445 10.781444,8.335031 10.686219,8.3983052 10.5963,8.4662116 10.1618,8.7943452 9.9049865,9.0308214 9.5604183,9.4540516 9.4154808,9.6320771 9.2925221,9.8269208 9.158574,10.013355 c -0.1025178,0.183377 -0.2156915,0.361191 -0.3075535,0.550131 -0.2058022,0.42329 -0.374046,0.906523 -0.3252841,1.385768 0.034522,0.339294 0.1059855,0.399434 0.2665444,0.68938 0.086716,0.09842 0.1651978,0.204763 0.2601492,0.295267 0.4058915,0.38688 0.985903,0.680975 1.53265,0.798019 0.146048,0.03126 0.296026,0.03998 0.444039,0.05997 0.150678,-0.0085 0.303161,-8.67e-4 0.452035,-0.02564 0.29445,-0.04899 0.632074,-0.175841 0.875741,-0.349877 0.04917,-0.03512 0.06171,-0.104316 0.09918,-0.151707 0.56766,-0.71788 0.177714,-0.120567 0.657594,-0.933375 0.07599,-0.182681 0.164236,-0.360735 0.227979,-0.548042 0.190359,-0.559361 0.264731,-1.154498 0.206724,-1.743244 C 13.49681,9.5166564 13.435769,9.4318034 13.266607,8.9453797 13.180075,8.7953254 13.109809,8.6346314 13.007009,8.495217 12.725819,8.1138735 12.31409,7.836063 11.829319,7.8132637 11.389035,7.7925566 11.222174,7.910498 10.816672,8.069432 10.515208,8.2925978 10.401269,8.3639833 10.092951,8.6972396 9.6387118,9.1882215 9.279633,9.7837516 9.0527097,10.412615 c -0.064412,0.178502 -0.1020941,0.365547 -0.1531411,0.54832 -0.016575,0.164816 -0.050674,0.328802 -0.049724,0.494446 0.00167,0.291275 0.062802,0.549285 0.2125445,0.799847 0.141653,0.237026 0.3572967,0.43044 0.5820515,0.584664 0.1263353,0.08669 0.2652912,0.153373 0.3979374,0.23006 0.149529,0.06294 0.295893,0.134012 0.448589,0.188828 0.623153,0.223703 1.297744,0.330493 1.959237,0.275061 0.148087,-0.01241 0.294001,-0.04358 0.441001,-0.06536 0.371766,-0.105952 0.398276,-0.09456 0.736671,-0.261948 0.01256,-0.0062 -0.05096,0.01166 -0.04203,8.56e-4 0.06536,-0.07912 0.155882,-0.135344 0.219602,-0.215794 0.187117,-0.236249 0.177775,-0.316098 0.261548,-0.60701 0.0073,-0.13508 0.02706,-0.270068 0.02177,-0.405239 -0.01314,-0.335408 -0.09354,-0.685337 -0.193695,-1.002886 C 13.76826,10.57441 13.588799,10.15556 13.39317,9.7831161 13.290761,9.5881541 13.171489,9.4025322 13.060651,9.2122417 12.938798,9.0470595 12.827861,8.8732376 12.695092,8.7166952 12.398843,8.3674023 12.012874,8.01142 11.527641,7.9808921 c -0.330787,-0.020811 -0.449897,0.083615 -0.73547,0.2220943 -0.0051,0.025097 9.57e-4,0.055405 -0.01517,0.07529 -0.0901,0.1111066 -0.203321,0.2016559 -0.29705,0.3097191 -0.158582,0.1828345 -0.325341,0.4206879 -0.45582,0.6261049 -0.054827,0.086315 -0.1040578,0.1760609 -0.1560865,0.2640914 0,0 -0.3523124,0.156221 -0.3523124,0.156221 v 0 c 0.1898692,-0.314213 0.3851126,-0.6239735 0.6240119,-0.9044122 0.09305,-0.1092251 0.182164,-0.2245141 0.293988,-0.3144207 0.204667,-0.164553 0.433523,-0.2965183 0.650285,-0.4447775 0.295087,-0.1327947 0.414023,-0.2338643 0.750406,-0.2007497 0.485021,0.047747 0.863611,0.4177958 1.155268,0.7723404 0.131007,0.1592545 0.24126,0.3345035 0.36189,0.5017552 0.11105,0.1912303 0.22963,0.3782819 0.33315,0.5736909 0.194868,0.3678406 0.385317,0.7954808 0.518788,1.1911068 0.109227,0.323767 0.195541,0.660306 0.217159,1.002967 0.0086,0.136285 -0.0075,0.273008 -0.01131,0.409512 -0.07558,0.295443 -0.06426,0.379996 -0.247939,0.622685 -0.210066,0.277558 -0.531092,0.43485 -0.829128,0.595947 -0.108759,0.05879 -0.225161,0.103263 -0.342296,0.14281 -0.128271,0.04331 -0.261528,0.07013 -0.392292,0.105199 -0.146621,0.01968 -0.292304,0.04849 -0.439863,0.05903 -0.664504,0.04747 -1.341098,-0.0637 -1.96652,-0.288333 C 10.036818,13.403268 9.8885493,13.331717 9.7371574,13.268192 9.6022389,13.190633 9.4608898,13.123316 9.3324019,13.035513 9.1011638,12.877495 8.8819857,12.681803 8.7379477,12.437204 8.5857558,12.178758 8.5270992,11.913719 8.5287362,11.614743 8.5296622,11.44561 8.566205,11.278553 8.5849394,11.110458 8.6382043,10.924919 8.6785131,10.73516 8.7447341,10.553841 8.9751906,9.9228302 9.3321071,9.3225029 9.7834697,8.8242631 9.9335276,8.6586207 10.090376,8.4959121 10.269878,8.3627442 10.528808,8.1706518 10.818037,8.0231904 11.092117,7.8534135 11.508532,7.69595 11.678324,7.5778978 12.128214,7.6060572 c 0.492557,0.03083 0.905637,0.3210276 1.186813,0.7115393 0.102488,0.1423412 0.172403,0.3055105 0.258604,0.4582657 0.168069,0.4904766 0.229602,0.580059 0.282541,1.1062848 0.05972,0.593679 -0.01204,1.191141 -0.200826,1.756413 -0.06293,0.188437 -0.150013,0.36793 -0.225019,0.551894 -0.184792,0.321673 -0.359045,0.688254 -0.644387,0.941433 -0.252263,0.223828 -0.781586,0.591973 -1.147359,0.732066 -0.385018,0.147464 -0.505785,0.120825 -0.908373,0.138833 -0.149069,-0.02151 -0.300177,-0.03188 -0.447207,-0.06454 C 9.7318433,13.815826 9.1438987,13.516575 8.733075,13.126912 8.6358232,13.034669 8.5551907,12.926354 8.4662485,12.826075 8.3014035,12.527816 8.2273957,12.466299 8.1949976,12.116752 8.1495564,11.62648 8.328442,11.133323 8.5407124,10.702105 8.6347676,10.511035 8.7496254,10.33093 8.8540819,10.145342 9.200409,9.6616453 9.3084951,9.4657368 9.7416293,9.0458339 10.185868,8.6151658 10.580916,8.3577927 11.153983,8.0799179 11.342386,7.9885627 11.54341,7.9197614 11.74826,7.8764223 c 0.187838,-0.03974 0.382883,-0.02916 0.574325,-0.043739 0.1784,0.038017 0.364206,0.050547 0.535201,0.1140514 0.753581,0.2798687 1.236122,1.0062626 1.486304,1.7356259 0.07123,0.2076681 0.109646,0.4251804 0.164469,0.6377704 0.02304,0.222306 0.06249,0.443519 0.06913,0.666918 0.02557,0.860009 -0.191281,1.750723 -0.690682,2.460339 -0.110864,0.15753 -0.251208,0.292096 -0.376811,0.438144 -0.408162,0.288792 -0.734785,0.571408 -1.193105,0.754572 -0.420071,0.167879 -0.904525,0.224867 -1.34452,0.09874 -0.12862,-0.03687 -0.245148,-0.107293 -0.367722,-0.16094 -0.263466,-0.225318 -0.361097,-0.25693 -0.502629,-0.589448 -0.1892196,-0.444556 -0.1521755,-0.968772 -0.0424,-1.426537 0.04577,-0.19088 0.120091,-0.373764 0.180136,-0.560646 0.09066,-0.19 0.169087,-0.386338 0.271982,-0.570001 0.205636,-0.367052 0.473043,-0.731544 0.765836,-1.034125 0.143621,-0.148422 0.293126,-0.293743 0.461239,-0.413717 0.251889,-0.1797622 0.517326,-0.3423063 0.793566,-0.4817827 0.157749,-0.079649 0.334296,-0.1147202 0.501444,-0.1720803 0.424788,-0.012888 0.549065,-0.072049 0.940525,0.135528 0.489273,0.2594429 0.823081,0.782311 1.034848,1.274234 0.08165,0.189672 0.134485,0.390492 0.201727,0.585738 0.03529,0.198708 0.0881,0.395091 0.105854,0.596126 0.03196,0.362003 0.01005,0.723638 -0.129977,1.063827 -0.06068,0.14742 -0.134153,0.296983 -0.247122,0.409467 -0.38628,0.384621 -0.652006,0.489712 -1.091143,0.71405 -0.161646,0.04243 -0.319935,0.100768 -0.484939,0.127288 -0.64159,0.103118 -1.372631,-0.02376 -1.900065,-0.418984 -0.120838,-0.09055 -0.217485,-0.20953 -0.326227,-0.314295 -0.205616,-0.336553 -0.288328,-0.401927 -0.360026,-0.798298 -0.08117,-0.448754 0.0126,-0.917183 0.208957,-1.323866 0.06809,-0.141031 0.161789,-0.268196 0.242684,-0.402294 0.103996,-0.119579 0.19056,-0.256907 0.311989,-0.358739 0.231308,-0.193979 0.754678,-0.557339 1.096467,-0.6791768 0.141064,-0.050285 0.289131,-0.084484 0.438148,-0.099377 0.378862,-0.037863 0.508456,0.028238 0.869337,0.1194677 0.358364,0.1740131 0.461422,0.1917171 0.759241,0.4671431 0.488213,0.451505 0.749858,1.071455 0.938036,1.694918 0.03968,0.166886 0.08711,0.332116 0.11903,0.500658 0.111848,0.590577 0.150122,1.270981 -0.111439,1.831225 -0.05572,0.119352 -0.1401,0.223094 -0.21015,0.334642 -0.320887,0.233273 -0.589384,0.484793 -0.965651,0.612114 -0.44062,0.149097 -0.92074,0.125176 -1.365705,0.01134 -0.167567,-0.04287 -0.32764,-0.110984 -0.49146,-0.166476 -0.429222,-0.22558 -0.550486,-0.258981 -0.924215,-0.578999 -0.423435,-0.36258 -0.76912,-0.815113 -1.000518,-1.322468 -0.07237,-0.158676 -0.120722,-0.327243 -0.181083,-0.490864 -0.03088,-0.160888 -0.07347,-0.319965 -0.09264,-0.482664 -0.03317,-0.281602 -0.02541,-0.564717 0.03179,-0.842601 0.02259,-0.109786 0.127168,-0.470768 0.234554,-0.563656 0.153583,-0.132848 0.343837,-0.21615 0.515756,-0.324225 0.06132,10e-4 0.126323,-0.01789 0.183962,0.0031 0.154308,0.0561 0.271781,0.240243 0.34617,0.366465 0.195707,0.33207 0.317729,0.703074 0.415795,1.073428 0.05598,0.31517 0.08835,0.412712 0.08826,0.72756 -1.21e-4,0.386124 -0.09432,0.763531 -0.215743,1.127249 -0.0062,0.01599 -0.11475,0.314651 -0.148419,0.344475 -0.129251,0.114488 -0.276644,0.208157 -0.42636,0.294169 -0.01981,0.01138 -0.05,0.0041 -0.06778,-0.01028 -0.04931,-0.03981 -0.06115,-0.199976 -0.0666,-0.23134 -0.0636,-0.745812 -0.104248,-1.493338 -0.158769,-2.23983 -0.03008,-0.388983 -0.06144,-0.778087 -0.08168,-1.167752 -0.0071,-0.136291 -0.01877,-0.376976 -0.01046,-0.521116 0.0031,-0.05429 0.01417,-0.107844 0.02126,-0.161766 0.133033,-0.09956 0.259349,-0.208789 0.3991,-0.2986743 0.04402,-0.028313 0.108414,0.028602 0.129948,0.05146 0.114307,0.1213363 0.166144,0.2914593 0.239208,0.4362853 0.09927,0.261677 0.119449,0.308408 0.214564,0.589736 0.185832,0.549649 0.345724,1.107875 0.542061,1.654025 0.120859,0.325386 0.229473,0.668872 0.418209,0.963802 0.03908,0.06107 0.08301,0.11991 0.134528,0.170925 0.03414,0.03381 0.139743,0.03703 0.119504,0.0806 -0.04559,0.09817 -0.168022,0.136501 -0.252032,0.204752 0.03053,-0.02033 0.06793,-0.03298 0.0916,-0.061 0.06291,-0.07451 0.09812,-0.224381 0.117318,-0.309764 0.06246,-0.277786 0.08495,-0.562842 0.09673,-0.846626 0.0031,-0.117456 0.0087,-0.234873 0.0094,-0.352369 0.0039,-0.604276 -0.04952,-1.208476 -0.122925,-1.807668 -0.04016,-0.265075 -0.05327,-0.373438 -0.104492,-0.630935 -0.04013,-0.2017196 -0.08366,-0.4309336 -0.194738,-0.6080333 0.112353,-0.07334 0.222462,-0.1502373 0.337057,-0.2200211 0.01291,-0.00786 -0.02475,0.019497 -0.03063,0.033418 -0.01297,0.030736 -0.01931,0.064089 -0.02443,0.097054 -0.03519,0.2265714 -0.02274,0.4584948 -0.0358,0.6864054 -0.0142,0.690418 -0.01402,1.380996 0.0037,2.071382 0.005,0.156304 0.0078,0.28596 0.01732,0.440306 0.0076,0.123742 0.01436,0.253513 0.04749,0.373926 0.0055,0.02013 0.01441,0.03919 0.02162,0.05879 0.09962,0.140935 0.03706,0.03153 -0.325786,0.251862 -0.0047,0.0028 0.0047,-0.01 0.0059,-0.01534 0.0078,-0.03468 7.81e-4,-0.06961 -6.29e-4,-0.104542 -0.0082,-0.09435 -0.02285,-0.188588 -0.02016,-0.28349 8.04e-4,-0.157537 0.0028,-0.315067 0.0067,-0.47256 0.007,-0.29183 0.01767,-0.583556 0.02383,-0.875407 0.0015,-0.15362 6.81e-4,-0.306717 -0.0059,-0.460235 -0.0015,-0.03512 -0.0034,-0.07022 -0.0059,-0.105293 -0.0015,-0.0212 -0.02278,-0.05062 -0.0059,-0.06349 0.114267,-0.08701 0.248566,-0.143965 0.37285,-0.215948 -0.02454,0.05839 -0.02141,0.123851 -0.02549,0.185986 -0.0081,0.123372 -0.01798,0.246653 -0.03026,0.369683 -0.02875,0.262651 -0.07748,0.527327 -0.05222,0.792026 0.04116,0.255716 0.09996,0.479403 0.286205,0.670688 0.15763,0.106113 0.0611,0.01969 -0.2837,0.243735 -0.0079,0.0051 0.02031,-0.0042 0.0255,-0.01207 0.02631,-0.03979 1.1e-4,-0.122091 0.009,-0.166071 -0.0023,-0.209021 -0.0086,-0.41799 -0.02183,-0.626633 -0.02105,-0.327992 -0.04429,-0.655777 -0.05994,-0.984077 -0.004,-0.04274 -0.0072,-0.08556 -0.01204,-0.12821 -0.0035,-0.03102 -0.03554,-0.07119 -0.01298,-0.09276 0.447765,-0.427999 0.378111,-0.32545 0.344769,-0.101327 -0.07998,0.321553 -0.15567,0.273962 -0.514312,0.484449 -0.08614,0.04131 -0.175406,0.07302 -0.266346,0.102172 -0.168305,0.06029 -0.04166,0.01865 0.258649,-0.166898 0.01551,-0.0096 -0.03343,0.0148 -0.0491,0.02412 -0.05754,0.03424 -0.08428,0.07739 -0.09476,0.144002 -0.002,0.02918 -0.006,0.05828 -0.0061,0.08753 -4.31e-4,0.09221 0.009,0.151867 0.02448,0.244566 0.02604,0.156332 0.06023,0.311591 0.112588,0.461434 0.03736,0.09189 0.05988,0.16037 0.112185,0.243437 0.01422,0.02259 0.02937,0.04565 0.05009,0.06248 0.0099,0.008 0.04754,9.51e-4 0.03726,0.0085 -0.406313,0.297089 -0.38825,0.284348 -0.286303,0.155299 0.117378,-0.237107 0.21506,-0.48401 0.296193,-0.735753 0.05027,-0.159678 0.08139,-0.248737 0.12034,-0.41295 0.06499,-0.273994 0.103227,-0.555591 0.102725,-0.837374 -0.0059,-0.06195 -0.005,-0.168253 -0.04281,-0.229126 -0.0085,-0.01369 -0.05299,-0.01516 -0.0409,-0.02582 0.08374,-0.07377 0.185455,-0.124216 0.279461,-0.184356 0.08964,-0.05735 -0.436115,0.285133 -0.24154,0.208762 -0.147684,0.166718 -0.203656,0.222958 -0.34092,0.409724 -0.2587,0.351995 -0.481302,0.732637 -0.646975,1.137127 -0.04016,0.127048 -0.0983,0.2536 -0.08625,0.391403 0.01801,0.20593 0.235003,0.122106 0.347694,0.07043 -0.06763,0.04168 -0.136152,0.08195 -0.202891,0.125041 -0.05055,0.03264 0.103679,-0.06114 0.154295,-0.09366 0.222658,-0.143085 0.434179,-0.303413 0.66086,-0.440469 0.166808,-0.09802 0.333086,-0.19694 0.500423,-0.294049 0.04642,-0.02694 0.18619,-0.10671 0.140806,-0.07807 -0.0763,0.04815 -0.156258,0.09027 -0.233643,0.13666 -0.08074,0.0484 0.113503,-0.06025 0.166077,-0.09958 0.01578,-0.01181 0.02916,-0.02651 0.04374,-0.03977 0.0067,-0.01149 0.01685,-0.02156 0.02009,-0.03445 0.02231,-0.08878 -0.174906,-0.258048 -0.223518,-0.314862 -0.218366,-0.203403 -0.451996,-0.389878 -0.703879,-0.550533 0,0 0.355116,-0.225765 0.355116,-0.225765 z"
   inkscape:connector-curvature="0" /><text
   xml:space="preserve"
   style="font-style:normal;font-weight:normal;font-size:17.33333397px;line-height:0;font-family:sans-serif;letter-spacing:0px;word-spacing:0px;fill:#ffffff;fill-opacity:1;stroke:none"
   x="6.1501784"
   y="18.507748"
   id="text186"><tspan
     sodipodi:role="line"
     id="tspan184"
     x="6.1501784"
     y="18.507748">X</tspan></text>
</svg>