<?xml version="1.0" standalone="no"?>
<!DOCTYPE svg PUBLIC "-//W3C//DTD SVG 20010904//EN"
 "http://www.w3.org/TR/2001/REC-SVG-20010904/DTD/svg10.dtd">
<svg version="1.0" xmlns="http://www.w3.org/2000/svg"
 width="1350.000000pt" height="1479.000000pt" viewBox="0 0 1350.000000 1479.000000"
 preserveAspectRatio="xMidYMid meet">
<metadata>
Created by potrace 1.10, written by Peter Selinger 2001-2011
</metadata>
<g transform="translate(0.000000,1479.000000) scale(0.100000,-0.100000)"
fill="#000000" stroke="none">
<path d="M7863 14513 c-13 -2 -44 -16 -70 -30 -54 -29 -172 -63 -219 -63 -69
0 -258 -66 -419 -147 -260 -129 -373 -233 -474 -436 -33 -68 -61 -128 -61
-134 0 -10 -16 -48 -48 -113 -16 -33 -22 -36 -87 -47 -38 -6 -120 -16 -181
-22 -164 -15 -246 -36 -419 -109 -145 -61 -209 -99 -273 -163 -71 -71 -99
-124 -114 -209 -23 -136 27 -249 120 -266 43 -8 59 -40 46 -91 -11 -43 -59
-81 -138 -107 -78 -27 -323 -124 -451 -181 -124 -54 -430 -211 -465 -239 -8
-7 -28 -18 -45 -26 -76 -38 -452 -297 -506 -350 -43 -42 -109 -147 -109 -174
0 -28 14 -17 42 33 40 70 107 127 226 192 20 11 51 28 67 38 39 23 167 93 280
153 163 86 536 268 551 268 2 0 32 13 66 28 126 57 160 72 218 92 14 5 50 18
80 30 30 12 69 25 85 30 17 5 55 18 85 30 30 12 87 31 125 42 81 24 259 82
295 96 36 14 180 55 308 86 183 46 254 65 337 91 115 36 236 70 315 90 36 9
88 22 115 30 28 8 84 21 125 30 41 9 93 22 115 27 22 6 58 15 80 19 132 27
303 60 390 74 55 9 127 23 160 31 33 7 94 20 135 28 41 8 102 20 135 27 33 6
92 15 130 20 83 9 182 25 285 44 303 57 495 65 615 26 96 -32 140 -64 205
-148 73 -96 132 -214 173 -348 31 -104 77 -369 77 -448 0 -27 6 -91 14 -141 8
-50 22 -174 31 -276 20 -231 41 -432 60 -575 31 -229 45 -362 45 -420 0 -33 6
-107 14 -165 8 -58 20 -152 26 -210 13 -135 13 -1031 0 -1175 -18 -187 -16
-604 3 -720 21 -124 21 -217 2 -415 -31 -321 -56 -484 -92 -613 -9 -31 -13
-60 -10 -64 4 -3 24 13 45 38 20 24 44 50 52 59 26 27 46 64 63 115 26 79 57
198 57 222 0 20 8 44 39 113 9 20 10 3 6 -78 -5 -104 -11 -128 -76 -302 -17
-47 -33 -94 -36 -106 -6 -28 22 -94 41 -94 8 0 43 22 78 48 73 56 197 142 205
142 3 0 22 13 43 30 21 17 41 30 46 30 4 0 15 6 23 14 9 8 47 30 85 50 71 37
126 47 126 23 0 -15 -421 -332 -509 -385 -31 -18 -63 -37 -71 -42 -113 -70
-222 -103 -335 -102 -33 1 -94 -7 -135 -18 -41 -10 -109 -26 -150 -34 -41 -9
-108 -22 -149 -31 -40 -8 -88 -15 -105 -15 -17 0 -67 -7 -111 -15 -44 -8 -145
-21 -225 -30 -80 -9 -180 -23 -224 -31 -43 -8 -98 -14 -123 -14 -44 0 -159
-17 -298 -45 -158 -31 -267 -44 -405 -50 -80 -3 -203 -10 -275 -15 -71 -5
-179 -10 -240 -10 -60 -1 -130 -5 -155 -10 -130 -27 -701 -43 -1580 -44 -454
-1 -520 2 -770 39 -108 16 -258 32 -375 40 -167 12 -423 56 -512 89 -23 9 -70
29 -105 45 -35 16 -109 49 -164 74 -56 24 -122 58 -148 75 -61 42 -70 22 -15
-35 46 -47 109 -90 194 -135 28 -14 79 -42 115 -62 93 -51 191 -98 299 -143
52 -22 99 -47 105 -56 19 -29 -23 -59 -179 -127 -134 -58 -141 -61 -227 -109
-194 -106 -362 -268 -389 -374 -8 -35 -8 -63 1 -116 20 -121 6 -142 -103 -155
-61 -7 -83 4 -91 49 -6 32 -13 39 -64 61 -63 28 -145 35 -227 19 -47 -9 -44
-9 66 -15 121 -7 143 -15 182 -66 21 -29 15 -43 -29 -72 -19 -13 -34 -28 -31
-35 2 -7 41 -15 103 -20 171 -14 379 18 529 82 11 5 38 15 60 24 67 25 123 46
163 62 81 31 259 75 305 75 41 0 111 -27 245 -94 267 -133 322 -184 322 -303
0 -75 -6 -93 -32 -93 -11 0 -79 35 -152 78 -134 80 -151 89 -221 117 -107 44
-160 57 -220 52 -80 -6 -172 -42 -213 -83 -63 -63 -20 -75 103 -32 151 55 238
59 318 18 51 -27 279 -179 387 -260 75 -55 195 -120 223 -120 6 0 30 -7 52
-15 61 -22 140 -18 220 11 108 39 153 48 170 34 31 -26 -45 -119 -146 -179
-62 -37 -162 -59 -339 -76 -284 -27 -279 -29 -403 92 -159 154 -305 223 -470
223 -169 0 -317 -61 -317 -131 0 -26 23 -29 87 -13 124 31 239 54 274 54 38 0
109 -21 175 -51 22 -11 90 -61 150 -112 97 -83 220 -167 244 -167 4 0 21 -6
37 -14 15 -8 50 -25 76 -38 56 -27 73 -43 82 -80 17 -68 -113 -112 -335 -112
-124 0 -141 2 -205 27 -38 16 -102 39 -142 52 -137 46 -161 71 -107 114 24 19
40 21 161 21 112 0 135 3 140 16 12 32 -15 39 -167 42 -147 3 -149 3 -222 -27
-79 -34 -140 -39 -185 -17 -110 55 -153 58 -239 20 -107 -48 -145 -56 -290
-61 -264 -10 -416 50 -460 180 -23 65 -27 298 -6 319 14 14 16 48 3 48 -15 0
-63 -61 -82 -105 -10 -22 -22 -68 -28 -102 -16 -103 -37 -120 -108 -92 -46 19
-141 37 -152 29 -8 -4 -1 -20 18 -47 39 -54 76 -81 120 -89 64 -10 128 -34
146 -54 17 -19 17 -20 -21 -37 -60 -25 -168 -23 -226 6 -50 24 -96 74 -117
127 -13 33 -29 116 -38 199 -12 110 46 254 156 384 61 72 249 241 286 257 26
12 27 13 7 14 -12 0 -30 -4 -40 -9 -27 -15 -115 -48 -143 -55 -34 -7 -58 18
-97 104 -49 106 -80 228 -97 380 -3 30 -10 80 -15 110 -5 30 -16 98 -24 150
-8 52 -22 136 -31 185 -9 50 -17 133 -18 185 -2 95 -2 96 47 202 55 119 60
123 164 138 102 15 168 41 297 118 152 90 231 149 316 232 50 49 95 90 99 90
4 0 11 -17 14 -37 7 -44 21 -129 36 -223 23 -150 50 -225 81 -225 11 0 14 24
12 130 -15 839 -14 1190 1 1395 23 301 45 528 58 574 5 22 14 72 18 110 9 78
26 181 41 236 8 32 27 113 64 275 34 148 48 202 56 225 5 14 14 48 18 75 5 28
16 88 25 135 8 47 19 101 24 120 5 19 17 71 27 115 19 87 66 292 91 394 10 41
12 67 6 73 -7 7 -13 -2 -17 -24 -4 -18 -11 -37 -14 -43 -17 -22 -83 -214 -120
-345 -12 -41 -26 -88 -31 -105 -15 -53 -66 -268 -95 -410 -9 -44 -23 -107 -30
-140 -7 -33 -21 -98 -30 -145 -21 -107 -43 -209 -60 -280 -34 -141 -75 -367
-75 -416 0 -22 -5 -55 -10 -74 -6 -19 -15 -89 -20 -155 -14 -163 -33 -277 -51
-302 -8 -11 -64 -58 -126 -104 -61 -46 -178 -140 -259 -209 -82 -69 -171 -143
-200 -165 -74 -58 -197 -157 -213 -173 -16 -16 -112 -79 -161 -105 -19 -11
-55 -31 -80 -44 -111 -61 -280 -166 -280 -174 0 -27 50 -8 295 111 88 43 214
103 280 135 111 52 202 111 301 195 22 19 71 60 109 90 37 30 73 60 79 65 6 6
34 28 61 50 28 21 55 44 60 50 36 37 109 94 116 89 5 -3 9 -122 9 -265 0 -287
-3 -302 -61 -358 -19 -18 -83 -68 -144 -111 -60 -43 -153 -115 -205 -159 -166
-142 -283 -176 -240 -71 20 47 76 90 290 223 138 86 166 124 181 241 17 131
-2 148 -70 61 -75 -98 -317 -318 -421 -383 -68 -43 -100 -71 -100 -89 0 -8 18
-42 40 -75 22 -34 40 -69 40 -77 0 -25 -82 -92 -109 -89 -21 3 -28 12 -41 58
-31 104 -60 140 -110 140 -20 0 -21 -3 -13 -42 20 -102 -1 -208 -40 -208 -7 0
-35 44 -62 98 -47 94 -80 142 -97 142 -14 0 -9 -34 21 -136 32 -108 46 -215
56 -424 4 -74 16 -187 27 -250 48 -273 74 -405 88 -450 12 -43 13 -70 1 -70
-14 0 -59 102 -95 215 -9 28 -28 86 -42 130 -52 163 -86 323 -100 480 -6 53
-9 64 -15 45 -26 -89 10 -417 72 -645 30 -108 54 -168 132 -324 63 -128 111
-187 216 -271 l44 -35 -67 -70 c-37 -39 -86 -98 -109 -132 -22 -35 -44 -63
-47 -63 -12 1 -28 18 -55 64 -33 54 -39 63 -108 165 -44 65 -147 270 -147 291
0 5 -6 24 -14 42 -24 57 -43 111 -59 168 -45 159 -63 220 -93 315 -24 78 -43
161 -59 255 -26 155 -46 233 -68 265 -23 33 -118 125 -129 125 -15 0 -58 76
-58 103 0 15 9 45 19 66 21 41 135 152 216 210 l50 36 -42 3 c-60 4 -127 -30
-200 -103 -64 -64 -102 -129 -103 -175 0 -28 29 -115 56 -169 9 -18 54 -73 99
-120 l82 -87 6 -175 c5 -168 10 -211 44 -384 20 -102 34 -152 89 -297 26 -71
115 -258 158 -333 51 -91 124 -185 208 -267 l98 -97 -15 -97 c-16 -99 -14
-142 10 -224 19 -66 38 -98 97 -167 63 -73 98 -103 158 -134 42 -22 56 -24
207 -24 90 0 163 -4 163 -8 1 -5 -12 -18 -27 -30 -58 -44 -311 -278 -336 -309
-14 -18 -38 -46 -52 -63 -136 -152 -175 -249 -120 -299 29 -27 65 -36 141 -36
66 0 71 16 8 26 -103 15 -134 91 -79 192 36 66 68 99 190 190 55 42 105 81
110 87 6 6 33 29 60 51 28 21 80 71 118 109 l67 70 55 -2 c53 -3 107 -22 120
-43 3 -6 -29 -48 -72 -95 -84 -93 -109 -130 -93 -140 32 -20 92 30 157 128 25
37 53 72 63 77 24 13 236 13 259 0 18 -9 26 -8 128 27 24 8 89 41 145 74 121
70 161 75 166 23 2 -17 -4 -51 -13 -75 -9 -24 -21 -67 -27 -96 -7 -38 -21 -65
-54 -103 -47 -55 -54 -79 -28 -101 22 -18 93 22 151 86 40 44 44 53 38 85 -17
101 -17 111 0 130 10 11 29 20 43 20 30 0 351 -117 371 -136 12 -11 8 -16 -20
-33 -19 -12 -68 -35 -109 -51 -98 -40 -104 -44 -109 -65 -3 -16 3 -17 51 -12
54 5 121 36 203 91 32 22 46 26 75 21 102 -20 159 -23 224 -14 165 23 185 29
281 95 33 22 68 43 78 47 14 5 16 14 11 49 -14 89 -53 139 -127 159 -22 6 -37
15 -34 22 2 8 53 14 163 18 87 3 173 11 190 16 51 17 135 75 196 136 63 63 73
91 66 184 -6 65 -24 84 -104 108 -40 11 -82 13 -195 9 -159 -7 -255 5 -277 34
-20 25 -8 103 21 149 14 22 48 60 77 86 42 38 59 47 89 47 108 0 329 10 416
19 114 12 408 13 475 2 l45 -7 -55 -8 c-30 -4 -68 -11 -85 -16 -26 -8 -178
-32 -455 -71 -151 -21 -270 -43 -270 -50 0 -3 21 -11 48 -17 26 -6 74 -18 107
-28 65 -18 6 -17 1355 -32 l635 -7 -3 -24 c-1 -13 -22 -47 -46 -76 -57 -66
-125 -166 -172 -252 -21 -37 -47 -75 -58 -85 -17 -13 -19 -19 -8 -29 17 -18
14 -75 -6 -128 -24 -63 -38 -69 -116 -48 -35 9 -92 17 -125 17 -51 0 -62 -3
-71 -21 -7 -11 -10 -23 -7 -25 21 -21 342 -63 358 -47 4 4 17 37 29 73 43 128
105 233 241 400 132 163 183 208 268 236 47 15 82 16 308 11 l254 -6 52 51
c128 125 279 202 477 243 47 10 127 31 179 48 97 31 104 31 253 11 74 -10 96
-1 108 49 6 23 16 59 21 79 7 27 22 47 54 70 24 18 53 49 64 69 41 71 142 154
486 394 168 118 357 254 365 264 3 4 37 31 75 61 39 30 72 57 75 61 9 10 181
142 294 224 125 91 165 141 148 180 -19 41 -53 47 -214 40 -99 -5 -148 -4
-148 3 0 6 34 39 76 74 42 34 102 84 133 110 31 26 66 48 79 48 50 0 247 -123
272 -170 27 -50 -23 -116 -153 -204 -45 -30 -102 -74 -127 -98 -25 -23 -101
-89 -170 -147 -69 -58 -145 -124 -170 -147 -83 -77 -261 -224 -398 -329 -76
-57 -186 -146 -246 -199 -112 -98 -183 -141 -250 -151 -53 -9 -28 -25 37 -25
26 0 63 -6 81 -14 61 -25 148 -166 196 -316 25 -78 28 -250 5 -327 -18 -60
-67 -154 -106 -204 -31 -40 -100 -73 -130 -64 -36 12 -22 53 46 141 91 116 98
137 93 257 -5 88 -8 102 -34 140 -20 28 -39 43 -56 45 -25 3 -26 1 -33 -63
-10 -93 -50 -130 -96 -89 -10 9 -25 14 -33 11 -18 -7 -18 -9 -41 -180 -18
-135 -34 -186 -84 -254 -36 -50 -205 -180 -336 -260 -43 -26 -166 -83 -179
-83 -26 0 -92 -35 -135 -72 l-43 -36 55 -7 c31 -4 93 -5 139 -3 73 3 94 9 171
46 49 23 95 42 103 42 17 0 29 -25 20 -42 -41 -79 -145 -235 -254 -381 -150
-200 -221 -312 -207 -325 10 -10 90 53 192 153 60 58 109 101 111 96 3 -10
-17 -62 -93 -234 -26 -59 -46 -110 -43 -113 3 -3 26 0 52 7 36 9 49 9 61 -1
13 -10 13 -15 0 -39 -8 -14 -25 -37 -37 -51 -61 -68 -112 -78 -155 -30 -14 17
-34 30 -43 30 -22 0 -46 -28 -54 -62 -12 -53 -74 -85 -115 -59 -24 15 -9 109
25 160 63 94 61 89 39 105 -79 60 -134 64 -820 66 -280 0 -544 5 -585 10 -41
5 -167 12 -280 15 -113 4 -252 13 -310 20 -265 35 -1332 57 -1360 29 -24 -24
54 -35 275 -40 128 -3 251 -11 294 -20 40 -8 96 -14 123 -14 48 0 220 -18 388
-40 41 -6 113 -13 160 -16 47 -2 144 -12 215 -20 138 -17 369 -15 515 5 41 5
171 10 287 10 231 1 267 -5 380 -66 86 -45 124 -56 303 -84 79 -12 160 -37
160 -49 0 -26 -53 -30 -358 -30 -350 0 -327 -4 -361 62 -25 49 -45 57 -76 28
-20 -19 -25 -32 -23 -60 l3 -35 -115 2 c-63 1 -153 5 -199 9 -87 6 -104 15
-138 70 -12 18 -13 18 -37 -9 -14 -15 -36 -31 -49 -36 -33 -13 -1010 20 -1047
35 -8 4 -184 10 -390 15 -206 5 -451 13 -545 18 -93 6 -474 15 -845 21 -716
11 -950 21 -1120 45 -205 30 -246 34 -293 35 -58 0 -54 -16 6 -25 23 -3 71
-17 107 -31 72 -26 124 -39 248 -59 45 -8 91 -17 101 -20 94 -29 695 -55 1418
-60 178 -2 330 -5 338 -9 21 -8 21 -203 -1 -300 -30 -131 -49 -167 -131 -247
-75 -73 -113 -135 -113 -185 0 -13 14 -55 31 -92 48 -103 45 -130 -35 -286
-37 -72 -67 -141 -66 -152 0 -27 14 -38 65 -54 55 -17 97 -50 161 -128 53 -65
68 -102 39 -102 -11 0 -195 90 -302 149 -10 5 -30 12 -45 15 -37 8 -84 50
-114 102 -32 55 -112 126 -179 159 -160 79 -284 86 -410 24 -123 -60 -255
-205 -331 -362 -23 -49 -77 -107 -99 -107 -4 0 -27 -13 -52 -30 -24 -16 -48
-30 -52 -30 -5 0 -14 -6 -20 -14 -25 -30 -76 -27 -181 13 -75 29 -90 27 -174
-19 -74 -41 -128 -51 -164 -30 -40 23 -125 50 -158 50 -47 0 -92 -22 -146 -72
l-43 -40 35 -16 c80 -39 97 -147 42 -265 -42 -92 -100 -188 -126 -209 -30 -25
-53 -22 -134 17 l-72 34 -34 -29 c-49 -44 -90 -49 -124 -17 -15 14 -54 40 -87
56 -80 41 -169 42 -273 6 -40 -14 -94 -25 -122 -25 -91 0 -108 -26 -70 -105
23 -48 53 -65 115 -65 25 0 76 -5 114 -12 55 -9 101 -9 213 1 162 14 184 10
231 -42 37 -42 79 -126 72 -145 -5 -13 -22 -14 -107 -8 -93 6 -132 13 -289 52
-30 8 -73 14 -95 14 -21 0 -102 11 -179 25 -283 51 -396 58 -705 44 -52 -2
-125 0 -163 4 -43 6 -67 5 -67 -1 0 -16 47 -28 255 -66 300 -55 369 -66 411
-66 53 0 283 -35 330 -50 22 -7 57 -19 79 -26 23 -8 72 -18 110 -23 121 -17
184 -29 268 -54 47 -14 150 -32 242 -42 88 -9 185 -23 215 -30 220 -54 336
-67 625 -69 168 -1 249 -6 270 -15 39 -16 155 -38 246 -46 41 -3 99 -12 129
-20 206 -51 199 -50 415 -50 212 0 232 2 455 50 36 7 101 21 145 29 44 9 109
23 145 31 124 26 238 38 309 32 39 -4 102 -10 140 -13 78 -8 121 0 121 21 0
19 43 94 97 172 24 34 43 66 43 71 0 5 7 15 15 22 29 24 29 77 2 148 -15 37
-31 86 -37 109 -8 30 -22 51 -52 74 -29 23 -51 55 -74 104 -68 148 -77 198
-44 245 33 47 193 170 205 158 6 -6 -24 -167 -35 -188 -5 -10 -10 -37 -10 -59
0 -31 5 -43 21 -51 34 -19 61 15 108 134 7 16 15 68 18 115 3 53 16 122 34
180 16 52 29 103 29 115 -2 57 -82 132 -248 234 -77 46 -99 75 -88 114 3 13
47 68 97 123 110 121 149 176 149 208 0 31 -45 92 -103 140 -59 48 -60 67 -6
172 23 44 45 91 49 105 5 14 18 50 30 80 26 68 50 189 50 251 0 69 8 73 147
59 65 -6 159 -17 208 -25 225 -36 589 -75 688 -75 26 0 64 -7 84 -15 l35 -15
-7 -83 c-8 -101 14 -206 69 -335 20 -46 36 -92 36 -101 0 -10 -24 -49 -53 -87
-63 -82 -83 -139 -67 -189 14 -43 53 -75 92 -75 35 0 45 -20 28 -61 -27 -64
-68 -107 -141 -145 -77 -41 -110 -79 -128 -150 -12 -45 -3 -80 54 -217 33 -77
31 -91 -20 -277 -23 -83 -26 -116 -28 -255 -1 -142 2 -167 21 -223 28 -80 61
-131 134 -211 64 -70 67 -84 43 -165 -48 -157 22 -227 98 -98 72 122 72 143
-3 225 -52 57 -125 173 -153 245 -23 57 -22 191 2 359 11 73 22 137 25 142 3
5 10 41 16 80 14 99 30 121 89 121 49 0 36 8 213 -141 59 -49 66 -79 48 -214
-25 -192 -25 -192 6 -233 15 -20 54 -63 86 -95 32 -31 58 -65 58 -75 0 -10
-13 -31 -30 -47 -37 -36 -55 -86 -41 -114 15 -27 14 -51 -4 -85 -13 -24 -13
-31 -3 -38 27 -18 646 16 763 42 44 10 125 29 180 43 79 20 140 28 290 34 187
9 192 10 260 42 39 18 115 44 170 56 55 13 132 34 170 48 39 14 97 32 130 41
68 19 125 46 125 61 0 6 -32 13 -72 17 -137 14 -145 21 -129 133 21 148 60
241 132 312 55 55 166 125 189 120 20 -4 19 -73 -2 -124 -36 -87 -50 -159 -51
-254 -1 -128 11 -149 86 -149 94 1 185 31 482 160 11 4 45 16 75 25 66 21 164
57 245 89 17 7 77 27 135 46 58 18 143 48 190 66 123 46 241 84 265 84 12 0
41 6 66 14 47 14 136 40 209 61 48 14 124 33 180 45 19 4 71 18 115 30 125 35
214 49 439 69 255 23 252 22 250 137 -1 69 -5 80 -35 123 -42 59 -77 90 -199
172 -179 121 -325 184 -540 236 -59 14 -116 18 -270 17 -181 0 -202 -2 -295
-28 -88 -24 -216 -66 -365 -121 -159 -58 -370 -199 -370 -247 0 -10 2 -18 4
-18 3 0 54 25 114 55 60 30 113 55 117 55 5 0 42 13 84 29 170 65 366 102 656
126 301 24 437 18 546 -23 13 -5 51 -18 84 -28 165 -51 340 -186 352 -271 4
-29 1 -44 -12 -56 -40 -41 -100 -6 -130 76 -17 49 -52 77 -96 77 -12 0 -72 12
-133 26 -138 32 -166 26 -166 -34 0 -21 9 -63 20 -94 23 -65 19 -85 -18 -92
-15 -3 -67 -12 -117 -21 -89 -16 -147 -34 -255 -75 -30 -12 -66 -25 -80 -30
-14 -5 -50 -18 -80 -30 -30 -12 -71 -26 -90 -31 -19 -4 -60 -18 -90 -30 -30
-11 -68 -24 -85 -29 -56 -15 -196 -73 -328 -134 -40 -19 -101 -47 -137 -64
-68 -31 -216 -93 -285 -119 -22 -8 -48 -19 -57 -24 -37 -19 -27 16 38 124 78
130 140 212 149 197 8 -12 76 -13 128 -1 65 15 174 97 155 116 -9 9 -134 -17
-157 -32 -13 -8 -44 -16 -68 -17 l-43 -1 6 35 c4 19 13 52 20 74 8 21 14 47
14 58 0 24 -16 20 -110 -27 -36 -18 -88 -38 -117 -45 -78 -20 -83 -12 -76 109
3 54 3 109 0 122 -14 57 -154 189 -199 189 -11 0 -66 -23 -122 -52 -87 -43
-105 -57 -119 -87 -10 -20 -35 -64 -57 -99 -22 -35 -57 -94 -78 -131 -20 -37
-48 -81 -62 -97 -39 -46 -149 -126 -165 -120 -15 5 -14 9 28 131 14 39 32 99
42 135 44 167 86 208 217 218 38 3 68 8 68 13 0 4 -10 15 -22 23 -36 26 -129
21 -196 -10 -113 -52 -160 -66 -181 -55 -16 9 -81 102 -81 116 0 20 -119 191
-164 237 -111 113 -363 238 -481 238 -77 0 -145 -67 -179 -176 -43 -137 -40
-135 -178 -145 -131 -9 -184 -35 -258 -125 -30 -37 -62 -75 -71 -84 -9 -9 -50
-62 -91 -117 -42 -55 -88 -108 -104 -117 -50 -33 -159 -7 -236 56 -16 13 -28
26 -28 30 0 14 40 19 61 8 33 -18 82 -4 109 32 17 23 24 49 28 101 5 65 3 71
-19 88 -33 26 -77 23 -124 -6 -59 -36 -105 -32 -89 9 8 20 139 128 182 150 17
9 54 21 82 27 39 8 50 15 50 30 0 11 -9 20 -22 23 -134 29 -231 44 -245 39
-10 -4 -46 -26 -81 -50 -65 -44 -102 -54 -102 -28 0 23 57 81 108 111 26 15
63 39 82 54 52 40 137 58 305 65 213 10 232 -2 201 -125 -21 -82 -20 -116 4
-140 31 -31 76 -26 112 12 42 45 68 101 68 146 0 32 -7 44 -42 78 -44 41 -76
64 -138 97 -52 28 -66 43 -78 85 -17 54 -27 334 -14 358 10 18 28 19 394 21
221 1 428 -2 489 -8 92 -10 114 -9 156 5 51 17 153 98 397 314 223 198 248
212 334 191 81 -20 282 -18 353 3 76 22 163 63 226 107 95 66 376 364 514 546
52 68 132 183 142 205 4 8 16 29 27 45 11 17 23 37 27 45 3 8 18 33 32 55 14
22 31 49 37 61 51 94 91 166 131 232 25 42 65 114 89 159 l44 83 0 129 c0 192
-35 335 -87 355 -39 15 -47 -16 -55 -204 -5 -145 -11 -191 -27 -235 -23 -60
-74 -162 -121 -240 -16 -27 -34 -59 -40 -70 -21 -38 -36 -61 -107 -160 -312
-432 -284 -394 -417 -555 -44 -52 -82 -97 -86 -100 -4 -3 -46 -50 -95 -105
-208 -236 -353 -345 -460 -345 -52 0 -50 15 8 53 70 47 100 81 135 152 41 83
62 273 62 563 0 230 8 289 50 370 25 47 45 66 60 57 15 -10 13 -368 -4 -489
-26 -182 -39 -323 -33 -340 5 -12 13 -15 34 -10 41 10 74 38 136 113 31 36 95
104 143 151 47 47 114 117 148 155 74 83 242 303 293 382 49 77 153 288 196
398 81 208 81 210 83 355 1 74 2 140 3 147 0 7 47 47 104 89 70 52 191 167
385 363 276 279 361 378 347 401 -18 29 -109 -36 -349 -253 -17 -15 -60 -56
-96 -90 -59 -57 -134 -127 -305 -288 -33 -31 -98 -83 -145 -117 -226 -163
-279 -201 -335 -237 -33 -21 -79 -51 -103 -67 -24 -15 -45 -28 -47 -28 -2 0
-23 -13 -47 -29 -279 -184 -369 -237 -387 -227 -19 12 -21 57 -5 92 9 19 53
68 98 109 145 132 198 168 431 290 105 54 157 87 232 147 59 47 150 145 142
153 -5 4 -32 -8 -159 -70 -82 -40 -195 -100 -215 -115 -5 -4 -41 -24 -80 -45
-196 -106 -243 -134 -327 -202 -138 -112 -170 -134 -183 -129 -21 8 -63 78
-70 118 -5 29 -2 40 21 67 35 42 113 93 247 161 120 61 124 64 187 104 125 80
371 307 490 453 30 37 165 178 300 313 173 173 267 260 320 294 118 77 154
117 116 132 -17 6 -63 -16 -188 -92 -50 -31 -103 -56 -117 -57 -23 -2 -26 2
-29 31 -4 40 19 77 102 170 55 61 66 85 46 97 -19 12 -102 -49 -173 -126 -40
-44 -80 -79 -89 -79 -9 0 -49 19 -90 43 -69 41 -117 69 -243 137 -30 17 -81
44 -112 62 -83 45 -198 133 -236 181 -39 49 -57 104 -57 176 0 63 19 190 31
211 50 86 156 88 322 5 113 -57 109 -54 237 -141 220 -149 243 -163 350 -215
113 -54 210 -99 217 -99 3 0 30 -11 58 -25 139 -65 321 -106 340 -75 3 6 3 19
0 31 -7 21 -55 46 -160 81 -33 10 -91 32 -130 48 -38 15 -95 38 -125 50 -78
31 -154 66 -235 107 -155 78 -162 91 -140 246 22 164 40 243 63 275 12 15 56
61 99 102 43 40 85 85 93 99 24 40 52 135 90 296 6 27 15 97 21 155 5 58 18
191 29 295 27 260 26 407 -5 591 -14 81 -25 162 -25 179 0 45 -34 148 -70 209
-45 79 -189 245 -269 310 -40 33 -79 73 -87 89 -29 56 -51 153 -84 382 -6 39
-15 84 -20 100 -6 17 -26 84 -45 150 -25 86 -61 170 -127 300 -193 382 -205
402 -303 520 -92 111 -261 273 -375 360 -58 43 -134 104 -170 135 -76 65 -226
180 -235 180 -3 0 -24 12 -46 26 -53 33 -176 82 -236 93 -75 15 -152 15 -376
1 -164 -9 -211 -10 -222 0 -11 9 -15 33 -15 84 0 144 -35 248 -128 385 -112
164 -145 198 -328 337 -50 38 -130 105 -178 149 -47 44 -109 92 -138 108 -28
15 -56 31 -62 36 -14 12 -75 20 -103 14z m127 -73 c11 -11 20 -28 20 -37 0
-34 39 -82 102 -124 85 -58 172 -148 301 -309 112 -140 177 -253 177 -309 0
-49 -23 -38 -78 37 -52 70 -69 100 -127 221 -52 108 -102 162 -132 143 -6 -4
-22 -48 -37 -99 l-27 -91 15 -134 c11 -96 13 -163 7 -241 -12 -152 -23 -158
-48 -26 -31 169 -67 289 -90 296 -6 2 -17 -6 -23 -18 -12 -22 -8 -65 26 -270
21 -131 19 -185 -10 -214 -30 -30 -83 -40 -143 -26 -88 20 -256 41 -332 41
-86 1 -145 8 -391 45 -171 26 -183 26 -510 20 -343 -6 -484 -19 -622 -55 -145
-37 -188 -56 -270 -117 -70 -53 -118 -108 -170 -196 -46 -77 -53 -83 -73 -67
-20 17 -19 113 1 156 33 69 166 176 301 243 83 42 292 111 398 132 104 21 431
26 550 8 206 -31 257 -39 333 -53 144 -28 245 -48 317 -62 39 -8 105 -17 147
-21 74 -5 78 -5 115 25 21 16 55 37 75 45 43 18 45 23 53 162 5 82 2 114 -15
179 -11 44 -20 87 -20 97 0 20 33 40 98 60 23 7 47 18 54 26 18 22 14 145 -6
175 -23 35 -89 62 -150 63 l-51 0 3 -52 c5 -70 -26 -201 -50 -214 -11 -6 -33
-9 -51 -7 -29 3 -32 1 -27 -22 6 -33 5 -76 -5 -195 -9 -116 3 -158 54 -196 17
-12 31 -27 31 -32 0 -21 -323 15 -455 50 -33 9 -72 28 -87 42 -28 25 -29 25
-255 29 -126 2 -232 8 -237 12 -5 5 16 57 45 117 161 323 271 453 464 547 207
100 231 106 457 106 124 0 196 4 213 12 15 7 37 32 51 59 31 62 51 72 84 39z
m678 -978 c25 -45 24 -68 -4 -79 -27 -10 -54 32 -54 84 0 37 3 44 17 41 10 -2
28 -22 41 -46z m955 -249 c105 -68 372 -280 455 -361 176 -173 391 -440 473
-587 18 -33 46 -78 62 -100 64 -91 114 -173 131 -215 10 -25 24 -60 32 -78 34
-79 35 -76 -220 -327 -279 -274 -320 -331 -286 -396 25 -45 59 -21 208 145
147 163 216 252 277 356 25 45 49 80 51 77 11 -11 34 -198 34 -278 l0 -86 -67
-73 c-135 -146 -320 -330 -332 -330 -27 0 30 71 162 202 75 75 137 141 137
146 0 20 -28 20 -71 1 -89 -41 -279 -202 -299 -255 -15 -38 -12 -87 6 -112 15
-22 14 -26 -20 -82 -53 -86 -56 -112 -16 -149 31 -28 32 -32 28 -87 -7 -77 7
-145 33 -167 l21 -17 -22 -56 c-28 -68 -28 -104 -1 -148 12 -18 21 -38 21 -44
0 -6 -18 -39 -39 -74 -49 -79 -58 -116 -36 -159 15 -27 16 -55 11 -198 -11
-294 -21 -389 -50 -464 -24 -62 -26 -81 -26 -215 -1 -186 -12 -270 -44 -335
-29 -60 -63 -100 -79 -94 -21 7 -19 119 7 302 24 170 40 458 40 695 -1 207
-24 982 -34 1090 -11 126 -35 315 -51 398 -6 29 -14 106 -19 170 -4 65 -13
147 -20 182 -6 36 -17 103 -25 150 -8 47 -21 123 -30 170 -8 47 -15 102 -15
122 0 69 -61 336 -105 458 -7 19 -20 60 -29 90 -47 159 -87 290 -101 330 -26
73 -122 264 -170 337 -64 98 -60 116 18 66z m1234 -2090 c7 -54 18 -145 23
-203 11 -114 32 -287 48 -390 6 -36 15 -144 21 -240 27 -451 31 -580 22 -795
-6 -134 -6 -248 -1 -290 39 -295 67 -691 52 -714 -15 -21 -21 -1 -33 105 -13
117 -33 212 -53 257 -36 76 -46 123 -47 216 0 101 -11 196 -22 208 -4 3 -19 0
-33 -7 -22 -12 -27 -12 -34 0 -16 25 -10 63 15 105 55 91 65 115 65 162 -1 26
-7 59 -15 73 -23 39 -18 95 16 175 17 41 29 82 27 92 -5 30 -47 28 -82 -4 -17
-16 -39 -35 -49 -42 -15 -12 -17 -12 -11 5 4 10 23 43 42 72 32 47 36 59 36
121 1 38 -2 72 -6 76 -4 4 -48 -35 -97 -86 -117 -121 -119 -108 -19 99 41 84
54 102 68 97 16 -5 19 4 26 82 12 137 9 224 -7 234 -55 31 -53 23 -50 213 4
234 -6 247 -106 149 -91 -90 -173 -149 -173 -127 0 7 69 92 122 149 56 61 72
84 114 164 39 75 108 160 121 148 3 -4 12 -51 20 -104z m256 -126 c48 -49 91
-106 121 -161 31 -57 66 -159 66 -196 0 -14 7 -56 15 -95 8 -38 11 -73 7 -77
-22 -22 -129 126 -213 294 -15 31 -49 186 -49 227 0 50 12 51 53 8z m-441
-289 c-21 -49 -108 -146 -185 -210 -48 -39 -50 -39 -21 -7 18 19 53 66 78 105
46 73 133 170 142 161 3 -3 -3 -25 -14 -49z m-526 -2440 c-4 -51 -12 -97 -18
-103 -7 -7 -9 10 -4 60 3 39 6 85 6 103 0 17 5 32 11 32 9 0 10 -26 5 -92z
m-1412 -1297 c16 -25 -126 -144 -254 -213 -75 -40 -132 -78 -205 -138 -132
-107 -216 -131 -525 -149 -80 -5 -188 -14 -240 -20 -305 -34 -701 -42 -1045
-21 -88 5 -405 10 -705 10 -300 1 -565 5 -590 8 -57 9 -61 28 -24 107 31 65
73 109 148 157 46 30 58 33 126 33 80 -1 190 -21 190 -35 0 -5 -19 -19 -42
-32 -50 -28 -57 -43 -26 -59 27 -15 178 -46 263 -55 33 -3 87 -13 120 -21 71
-18 434 -20 550 -3 39 5 183 14 320 20 625 24 786 33 870 46 50 8 124 14 165
15 69 0 113 6 195 25 41 10 114 59 220 150 132 113 176 136 293 155 31 5 75
13 97 18 54 12 93 13 99 2z m-4024 -151 c35 -11 87 -18 280 -40 119 -14 136
-23 117 -60 -22 -45 -46 -124 -52 -178 -4 -28 -15 -62 -24 -74 l-18 -21 -237
13 c-285 16 -440 8 -711 -35 -49 -8 -137 -17 -195 -20 -104 -6 -206 -20 -245
-35 -48 -18 65 -30 285 -30 220 0 224 0 205 -19 -17 -16 -131 -66 -265 -117
-19 -7 -60 -23 -90 -34 -136 -53 -243 -83 -259 -73 -23 15 -27 140 -6 203 24
73 115 150 265 224 41 21 88 44 103 52 16 8 36 14 46 14 9 0 25 6 36 14 11 7
31 16 45 19 27 6 103 32 135 47 11 5 58 23 105 40 47 18 100 39 117 46 18 8
47 21 65 28 18 8 49 21 68 29 41 18 178 22 230 7z m616 -574 c95 -18 337 -33
649 -41 180 -5 258 -2 360 10 111 14 235 16 855 14 399 -2 1015 -3 1370 -4
355 0 657 -4 672 -9 40 -12 40 -29 -2 -74 -33 -37 -43 -42 -81 -42 -25 0 -60
9 -81 19 -52 28 -163 36 -293 20 -131 -16 -149 -16 -660 -4 -598 15 -1158 11
-1420 -9 -203 -15 -254 -23 -420 -61 -68 -16 -220 -36 -445 -61 -85 -9 -184
-20 -220 -25 -104 -15 -376 -33 -393 -26 -13 5 -15 21 -10 99 5 83 3 95 -15
116 -10 12 -24 22 -30 22 -13 0 -32 -33 -43 -75 -28 -111 -121 -255 -163 -255
-16 0 -100 73 -204 177 -36 37 -65 56 -95 64 -95 24 -291 95 -294 106 -3 7 8
16 24 20 36 10 319 10 354 1 33 -9 44 -35 26 -57 -40 -47 -33 -47 58 0 59 30
137 52 255 72 112 19 152 20 246 3z m5014 -745 c0 -32 -78 -128 -135 -165 -30
-21 -60 -34 -65 -31 -11 7 -14 114 -4 140 8 21 95 64 148 74 48 9 56 6 56 -18z
m-95 -293 c-9 -41 -79 -170 -112 -206 l-24 -27 5 80 c7 115 20 152 59 169 18
8 42 15 55 15 21 1 23 -2 17 -31z m-595 -31 c0 -13 -7 -46 -15 -73 -8 -27 -15
-67 -15 -89 0 -22 -7 -65 -15 -95 -8 -30 -15 -65 -15 -78 0 -55 -107 -227
-227 -367 -53 -62 -172 -169 -180 -162 -3 3 21 43 53 89 205 294 257 399 339
693 9 33 23 70 31 83 19 29 44 29 44 -1z m-4347 -1206 c14 -6 27 -21 31 -36
20 -81 121 -249 157 -260 60 -20 105 77 93 205 l-7 80 85 0 c47 0 89 -5 95
-11 12 -12 6 -34 -51 -189 -57 -157 -116 -322 -116 -326 0 -2 -10 -8 -22 -15
-17 -9 -47 -5 -157 20 -75 18 -165 39 -201 47 -36 9 -71 21 -79 29 -11 11 -12
49 -3 229 6 119 14 221 17 226 8 13 126 13 158 1z m2335 -145 c17 -6 20 -21
25 -131 4 -69 14 -157 24 -196 16 -66 16 -72 0 -83 -13 -11 -298 -38 -416 -40
-47 -1 -65 32 -87 158 -14 83 -14 108 -4 154 15 69 66 129 113 134 68 7 327 9
345 4z m-2500 -432 c152 -35 252 -78 252 -110 0 -30 -93 -75 -184 -88 -116
-18 -129 -56 -20 -56 77 0 172 -29 210 -65 19 -18 34 -37 34 -42 0 -6 -20 -40
-44 -76 -24 -36 -47 -75 -51 -87 -3 -11 -18 -23 -33 -27 -15 -3 -36 -12 -48
-20 -12 -7 -29 -11 -38 -7 -13 5 -16 -1 -16 -31 0 -30 11 -66 25 -83 2 -2 12
2 23 9 18 11 24 10 41 -5 15 -13 24 -15 39 -7 42 22 150 -61 122 -94 -6 -8
-48 -26 -93 -41 -106 -36 -228 -38 -297 -6 -66 31 -185 124 -188 147 -1 11 12
63 29 115 21 65 33 122 36 180 5 83 4 86 -25 123 -34 42 -48 105 -38 160 11
58 100 124 169 126 15 1 58 -6 95 -15z m394 -134 c50 -22 83 -53 73 -69 -8
-14 -90 -14 -118 0 -32 17 -77 61 -77 76 0 20 70 16 122 -7z m3093 -74 c28
-13 61 -35 74 -50 l24 -26 -82 0 c-90 0 -134 -16 -185 -66 -33 -33 -207 -323
-224 -373 -22 -62 -15 -117 38 -348 24 -99 25 -158 6 -273 -30 -177 -114 -286
-255 -328 -147 -44 -254 -65 -294 -56 -36 7 -128 97 -156 151 -36 72 -27 192
24 333 114 311 194 457 317 576 61 60 175 144 195 144 5 0 47 34 92 75 46 41
90 75 99 75 8 0 57 43 107 95 86 88 95 95 131 95 22 0 62 -11 89 -24z m96
-336 c10 -6 19 -17 19 -24 0 -21 -58 -102 -128 -177 -105 -113 -139 -163 -153
-226 -16 -70 -49 -113 -75 -97 -24 14 -36 60 -30 111 12 93 181 328 285 394
50 32 54 33 82 19z m-4423 -27 c16 -10 46 -39 68 -64 87 -103 101 -116 139
-139 22 -13 60 -42 85 -65 39 -36 141 -105 155 -105 3 0 24 -12 48 -27 23 -15
58 -36 77 -46 162 -89 316 -239 400 -392 31 -55 34 -68 34 -146 l1 -87 -41
-48 c-47 -56 -119 -108 -172 -125 -20 -6 -74 -13 -120 -16 -151 -10 -243 30
-391 170 -161 151 -244 346 -227 530 22 237 21 251 -19 207 -23 -25 -36 -25
-69 1 -42 33 -33 68 26 99 26 13 49 32 51 40 7 27 -11 59 -45 80 -97 59 -158
33 -408 -178 -74 -62 -145 -118 -158 -123 -38 -15 -102 -11 -109 7 -16 42 54
125 215 255 184 150 255 186 364 188 48 1 76 -4 96 -16z m4745 -33 c15 -12 36
-34 48 -51 19 -27 20 -31 5 -52 -8 -12 -28 -40 -44 -62 -15 -22 -50 -91 -76
-153 -28 -63 -57 -117 -68 -123 -24 -13 -55 -3 -68 22 -13 23 -5 123 15 189 7
25 16 56 18 70 20 97 77 180 123 180 12 0 33 -9 47 -20z m881 -29 c38 -33 46
-70 30 -146 -36 -173 -177 -351 -261 -330 -22 5 -25 10 -19 37 3 18 23 56 44
85 65 93 64 88 58 208 -6 119 2 146 48 165 27 11 76 2 100 -19z m-2861 -55 c7
-8 28 -36 45 -63 61 -95 128 -123 312 -132 120 -6 125 -7 128 -29 5 -33 -33
-87 -74 -107 -31 -15 -53 -16 -148 -10 -61 4 -156 8 -211 9 -55 2 -106 3 -112
4 -7 1 -23 21 -35 45 -19 34 -23 58 -23 130 l0 88 42 40 c46 43 55 46 76 25z
m-1264 -65 c25 -19 29 -53 16 -133 -22 -128 -123 -217 -353 -307 -80 -32 -102
-28 -156 25 -69 68 -58 85 74 119 181 47 238 86 310 207 45 76 69 108 79 108
3 0 17 -9 30 -19z m-1683 -169 c13 -9 36 -52 64 -121 12 -30 40 -80 62 -113
32 -46 41 -70 45 -116 5 -57 5 -59 -39 -113 -57 -70 -108 -99 -175 -99 -47 0
-54 3 -82 37 -17 21 -38 61 -46 89 -30 104 -13 120 59 54 51 -47 87 -52 112
-15 17 27 14 47 -18 112 -25 50 -101 133 -123 133 -8 0 -22 -12 -32 -27 -29
-47 -44 -62 -59 -56 -23 8 -16 48 12 74 15 13 37 40 49 60 24 37 119 108 145
108 8 1 20 -3 26 -7z m-442 -145 c35 -43 96 -156 96 -178 0 -11 21 -79 47
-152 16 -47 17 -92 1 -104 -25 -19 -139 -44 -170 -38 -28 7 -30 9 -24 44 17
93 18 118 7 167 -7 30 -28 90 -47 134 -38 86 -38 108 -1 148 30 32 51 27 91
-21z m-405 -51 c20 -21 51 -160 51 -227 0 -15 18 -62 40 -104 22 -42 40 -85
40 -95 0 -32 -56 -54 -155 -60 -87 -5 -90 -6 -87 -28 1 -13 17 -49 35 -80 81
-140 191 -442 168 -465 -5 -5 -45 -8 -89 -6 -100 5 -119 20 -146 116 -29 104
-52 141 -141 228 -45 44 -90 93 -100 108 -18 28 -18 28 8 55 26 27 70 52 160
92 28 12 51 30 56 43 11 29 27 42 72 56 20 6 44 20 54 31 31 35 3 112 -81 221
-52 69 -62 99 -37 121 35 31 120 28 152 -6z m-425 11 c12 -9 25 -48 41 -123
12 -60 37 -145 54 -189 18 -44 30 -89 27 -100 -10 -38 -213 -120 -246 -100
-13 8 -7 44 26 141 36 106 33 136 -26 229 -27 44 -50 83 -50 88 0 5 14 22 31
38 25 23 40 29 78 29 26 0 55 -6 65 -13z m6442 -62 c3 -14 4 -33 1 -43 -9 -29
-29 -85 -43 -117 -43 -104 -55 -160 -69 -336 -7 -85 -21 -107 -84 -128 -42
-14 -131 -14 -165 -1 -24 9 -26 14 -26 70 0 82 41 182 142 348 108 179 226
278 244 207z m-438 -5 c62 -38 66 -90 12 -190 -41 -77 -75 -148 -93 -195 -16
-46 -47 -199 -47 -239 0 -52 -25 -74 -93 -80 -34 -4 -87 -3 -117 1 l-55 8 -3
40 c-6 74 76 320 155 463 67 122 149 212 193 212 8 0 30 -9 48 -20z m-4866
-476 c50 -37 91 -104 144 -234 43 -102 51 -120 103 -231 46 -97 48 -104 25
-113 -31 -12 -219 -18 -244 -8 -28 11 -40 31 -95 166 -36 87 -69 153 -114 226
-11 19 -24 42 -28 50 -4 8 -19 37 -35 63 -34 59 -36 85 -5 92 92 20 215 15
249 -11z m-398 -37 c31 -31 119 -215 171 -357 7 -19 20 -53 30 -76 9 -22 17
-63 18 -90 l2 -49 -110 -3 c-118 -3 -162 7 -175 42 -4 12 -10 53 -14 91 -8 81
-23 130 -83 276 -23 59 -43 111 -43 116 0 6 8 17 18 26 57 51 147 63 186 24z
m838 -156 c58 -39 138 -114 138 -130 0 -34 -87 -19 -139 24 -29 25 -81 104
-81 124 0 20 39 11 82 -18z m-1978 -75 c20 -23 36 -51 36 -61 0 -16 -7 -17
-60 -12 -60 5 -90 19 -90 41 0 15 56 76 69 76 5 0 26 -20 45 -44z"/>
<path d="M7428 14209 c-18 -10 -58 -90 -58 -115 0 -7 -6 -28 -14 -46 -7 -18
-21 -58 -30 -88 -35 -120 -67 -211 -104 -292 -35 -78 -35 -79 38 -99 75 -22
133 -24 147 -6 5 6 20 46 33 87 22 70 62 169 95 233 8 16 15 39 15 51 0 12 6
42 14 67 8 24 20 70 27 103 12 57 12 59 -10 77 -41 33 -120 48 -153 28z"/>
<path d="M10225 12273 c-26 -26 -35 -59 -35 -131 0 -78 8 -112 24 -112 7 0 30
19 51 41 80 83 156 95 193 29 9 -16 25 -30 35 -30 10 0 17 -5 15 -12 -3 -7 3
-28 13 -47 l17 -35 -50 -34 c-61 -39 -80 -38 -44 5 14 17 26 43 26 57 0 57
-59 42 -157 -42 -70 -59 -78 -83 -44 -138 17 -28 17 -34 4 -73 -37 -111 6
-141 100 -69 126 97 199 161 208 185 15 39 11 90 -7 97 -9 3 -14 12 -11 19 14
37 -127 231 -202 279 -52 32 -110 37 -136 11z"/>
<path d="M10564 11789 c-27 -23 -51 -45 -54 -48 -3 -4 -27 -25 -55 -46 -88
-71 -213 -196 -230 -231 -22 -48 -6 -79 37 -70 54 11 170 110 289 248 69 80
91 120 87 155 -5 40 -21 38 -74 -8z"/>
<path d="M8085 2750 c-27 -10 -87 -77 -131 -147 -42 -65 -134 -246 -134 -263
0 -7 -6 -24 -14 -38 -27 -53 -46 -128 -46 -181 0 -70 43 -152 116 -221 61 -58
85 -62 143 -26 35 22 101 104 101 125 0 4 8 23 17 42 14 27 18 58 17 144 -1
95 -5 119 -28 175 -63 149 -70 223 -35 329 11 35 19 64 17 66 -2 1 -12 -1 -23
-5z"/>
<path d="M4537 2325 c-23 -23 -22 -129 3 -222 38 -144 141 -306 234 -369 45
-30 58 -34 119 -34 76 0 124 19 171 68 68 72 22 204 -119 347 -153 155 -358
261 -408 210z"/>
<path d="M9110 13103 c154 -164 184 -219 254 -458 56 -191 80 -245 99 -226 13
13 3 247 -13 291 -7 19 -19 51 -25 70 -77 212 -157 312 -301 376 -89 39 -91
30 -14 -53z"/>
<path d="M8806 13062 c-3 -6 15 -23 41 -40 96 -59 152 -112 242 -233 51 -68
99 -128 107 -132 25 -14 37 3 30 47 -16 99 -59 188 -115 239 -79 71 -285 152
-305 119z"/>
<path d="M8305 12740 c-275 -6 -369 -14 -530 -45 -38 -7 -122 -21 -185 -30
-63 -9 -160 -28 -215 -42 -55 -14 -118 -29 -140 -33 -22 -5 -74 -15 -115 -23
-41 -8 -111 -25 -155 -37 -44 -12 -89 -24 -100 -27 -11 -2 -42 -10 -70 -18
-27 -8 -79 -21 -115 -30 -109 -28 -183 -47 -230 -60 -25 -7 -74 -21 -110 -30
-36 -10 -103 -30 -150 -45 -47 -15 -112 -34 -145 -43 -33 -8 -89 -23 -125 -33
-74 -19 -328 -103 -410 -134 -30 -12 -64 -24 -75 -27 -11 -3 -33 -11 -50 -18
-16 -8 -70 -30 -120 -50 -365 -150 -796 -388 -893 -494 -31 -33 -182 -324
-182 -349 0 -6 -6 -26 -14 -44 -20 -48 -40 -114 -91 -308 -23 -86 -43 -158
-56 -197 -6 -18 -14 -54 -19 -80 -27 -140 -38 -192 -49 -233 -7 -25 -19 -72
-28 -105 -8 -33 -19 -71 -24 -85 -5 -14 -13 -45 -19 -70 -19 -91 -32 -146 -46
-194 -8 -26 -14 -59 -14 -71 0 -13 -5 -36 -10 -51 -6 -15 -15 -66 -21 -113
-20 -174 -40 -359 -50 -486 -16 -180 -15 -755 0 -880 7 -55 16 -147 21 -205
10 -134 41 -220 107 -299 32 -38 113 -100 158 -120 34 -15 201 -69 290 -95 33
-9 83 -23 110 -31 48 -13 119 -32 235 -60 185 -45 412 -79 785 -116 170 -17
722 -23 811 -9 40 6 242 15 450 20 393 9 597 20 819 45 72 8 200 21 285 30 85
9 189 21 230 27 41 6 102 14 135 18 33 4 80 13 105 18 25 6 81 18 125 27 145
30 197 46 325 102 191 85 287 150 354 242 82 112 196 386 196 472 0 20 7 74
15 120 50 288 75 477 75 574 0 39 7 129 15 200 31 281 46 827 27 1000 -13 123
-42 686 -42 810 0 92 -26 292 -76 570 -8 44 -14 93 -14 109 0 16 -6 55 -14 85
-8 31 -22 88 -31 126 -37 162 -152 519 -197 611 -40 82 -104 153 -168 188 -49
27 -63 29 -169 31 -64 2 -246 -1 -406 -5z m170 -205 c44 -10 96 -26 116 -36
65 -32 266 -248 240 -257 -7 -2 -58 31 -114 74 -134 101 -246 154 -334 157
-37 1 -67 -2 -69 -8 -4 -10 4 -15 121 -79 72 -40 174 -106 330 -215 206 -145
329 -319 349 -497 7 -54 1 -84 -16 -84 -6 0 -36 22 -67 48 -186 159 -262 190
-140 57 101 -110 116 -133 151 -233 40 -115 47 -234 23 -369 -31 -174 -52
-224 -171 -403 -84 -126 -192 -242 -323 -344 -122 -96 -142 -116 -117 -116 16
0 96 40 158 78 143 89 282 172 284 170 8 -9 -162 -201 -247 -279 -102 -95
-146 -145 -135 -156 10 -11 96 37 216 121 47 33 114 79 150 104 68 46 142 105
172 135 17 16 18 16 18 0 0 -9 -18 -38 -40 -65 -23 -26 -48 -65 -57 -85 -29
-70 0 -184 60 -240 24 -22 81 -29 103 -12 6 5 18 7 25 4 22 -8 59 -69 59 -96
0 -13 8 -61 17 -106 15 -72 15 -94 5 -165 -7 -46 -20 -265 -29 -488 -18 -438
-19 -447 -79 -515 -14 -16 -47 -57 -72 -90 -83 -108 -210 -251 -312 -349 -92
-88 -120 -109 -120 -88 0 7 53 87 101 152 110 149 169 233 169 241 0 27 -43
-8 -200 -164 -202 -199 -317 -305 -412 -377 -38 -28 -107 -82 -155 -121 -76
-60 -179 -135 -281 -202 -115 -75 -392 -149 -392 -104 0 13 21 28 160 113 246
149 466 351 673 618 72 93 150 189 173 215 42 45 45 73 6 52 -41 -22 -123
-100 -222 -211 -166 -187 -409 -400 -456 -400 -23 0 -3 31 101 155 111 132
225 280 225 291 0 4 6 15 13 23 18 23 39 89 32 101 -3 5 -20 10 -37 10 -37 0
-76 -38 -165 -161 -144 -201 -322 -389 -368 -389 -33 0 -32 9 10 61 93 116
281 367 302 403 17 31 23 57 23 103 0 51 6 73 35 129 30 58 110 165 178 239
25 27 91 145 84 151 -18 19 -116 -69 -213 -191 -56 -71 -184 -198 -275 -274
-35 -30 -93 -80 -129 -112 -177 -159 -311 -249 -545 -367 -234 -119 -295 -142
-535 -205 -101 -26 -137 -30 -294 -34 -331 -9 -599 46 -791 163 -38 23 -72 41
-74 39 -8 -9 44 -67 92 -102 28 -21 54 -41 55 -45 2 -5 11 -8 20 -8 10 0 26
-7 36 -15 11 -8 30 -15 43 -15 49 0 217 -99 253 -150 24 -33 26 -48 5 -30 -9
8 -29 10 -50 7 -19 -3 -35 -3 -35 1 0 4 -20 16 -45 27 -25 11 -45 23 -45 28 0
4 -4 7 -10 7 -5 0 -10 -4 -10 -9 0 -19 142 -150 213 -196 39 -25 53 -53 35
-71 -25 -25 -141 -27 -456 -10 -469 26 -735 64 -1042 151 -25 7 -74 20 -110
30 -157 42 -204 61 -263 108 -48 37 -69 80 -93 187 -17 77 -19 123 -17 475 2
368 13 564 44 825 5 47 14 157 19 245 10 173 32 378 50 465 6 30 17 87 24 125
8 39 22 115 31 170 9 55 23 127 30 160 8 33 21 96 30 140 9 44 23 103 30 130
19 68 46 165 56 195 4 14 17 66 29 115 24 104 47 185 66 235 7 19 21 60 30 90
62 200 94 230 405 374 31 14 59 26 63 26 5 0 22 6 39 14 27 11 191 74 347 132
19 7 60 23 90 34 30 12 66 25 80 30 14 5 70 25 125 45 55 20 114 40 130 45 29
8 58 18 135 45 19 7 64 21 100 30 36 10 83 23 105 30 53 17 141 39 240 60 44
10 100 23 125 30 52 16 131 36 245 64 82 20 161 41 250 68 28 9 73 20 100 25
28 5 76 16 107 24 32 8 67 14 79 14 12 0 45 6 73 14 52 15 134 31 306 61 90
15 149 28 285 60 87 21 547 14 660 -10z m-4594 -3216 c8 -113 -4 -257 -31
-379 -12 -52 -25 -139 -29 -192 -7 -94 -14 -119 -27 -105 -11 11 15 589 31
676 14 76 30 110 45 95 2 -3 8 -46 11 -95z m5289 -799 c0 -102 -57 -190 -221
-341 -57 -52 -109 -98 -117 -104 -7 -5 -19 -16 -27 -22 -32 -29 -34 -10 -3 31
161 211 251 334 297 404 30 45 58 82 63 82 4 0 8 -22 8 -50z m-1280 16 c0 -24
-43 -91 -88 -136 -54 -53 -167 -128 -178 -117 -7 7 239 257 254 257 6 0 12 -2
12 -4z"/>
<path d="M7725 12271 c-170 -38 -276 -91 -366 -186 -39 -41 -43 -58 -24 -109
15 -38 21 -44 53 -50 59 -9 180 -7 187 4 3 6 15 10 26 10 11 0 77 13 147 29
268 62 344 61 467 -4 33 -18 82 -38 108 -45 45 -12 49 -12 72 10 14 13 25 32
25 43 0 11 8 56 17 101 9 44 13 93 10 107 -12 46 -68 70 -187 80 -58 5 -138
14 -178 19 -109 15 -266 11 -357 -9z m483 -63 c16 -16 15 -49 -4 -73 -28 -37
-180 -16 -172 24 8 42 145 80 176 49z"/>
<path d="M5207 11725 c-96 -21 -209 -65 -250 -97 -52 -41 -71 -94 -94 -251
l-5 -38 57 31 c56 30 164 107 234 166 62 53 112 66 266 67 153 2 144 5 255
-69 75 -49 110 -60 139 -44 48 25 7 134 -67 176 -35 20 -104 40 -220 63 -70
14 -241 12 -315 -4z"/>
<path d="M7799 11610 c-161 -53 -360 -177 -507 -316 -51 -48 -104 -107 -119
-131 -23 -41 -25 -49 -18 -121 9 -99 53 -229 100 -298 44 -63 158 -180 196
-199 93 -48 151 -60 294 -59 101 1 153 6 185 18 25 8 53 16 62 16 10 0 32 6
50 14 18 8 53 22 78 32 99 39 217 133 324 256 36 42 66 79 66 82 0 3 13 27 28
53 70 121 82 268 29 375 -35 72 -151 196 -209 226 -25 12 -89 33 -144 47 -127
32 -325 35 -415 5z m433 -118 c143 -70 218 -184 218 -331 0 -60 -5 -82 -31
-134 -35 -71 -100 -142 -138 -152 -20 -5 -30 -1 -48 22 -13 15 -23 32 -23 37
0 22 -64 86 -97 97 -68 22 -207 -2 -323 -56 -81 -37 -99 -54 -131 -115 -20
-39 -21 -46 -9 -108 24 -132 24 -139 -1 -145 -72 -19 -227 50 -320 142 -88 89
-114 144 -114 241 0 73 1 77 44 135 90 123 258 265 381 322 130 61 247 83 426
79 91 -1 106 -4 166 -34z m-168 -528 c16 -15 19 -26 30 -90 8 -51 -11 -102
-45 -119 -28 -15 -30 -15 -38 7 -5 13 -15 63 -22 111 -11 76 -10 90 2 98 22
14 56 11 73 -7z m-254 -186 c0 -32 -27 -49 -41 -27 -10 16 -12 73 -2 82 12 13
43 -26 43 -55z"/>
<path d="M7120 11572 c-141 -158 -187 -247 -146 -281 11 -9 15 -4 20 26 7 48
36 103 92 176 24 31 44 62 44 67 0 6 5 10 10 10 6 0 10 5 10 10 0 15 -13 12
-30 -8z"/>
<path d="M8670 11561 c0 -6 16 -35 35 -65 62 -97 75 -144 75 -265 0 -124 -15
-182 -80 -314 -50 -100 -135 -205 -237 -293 -103 -87 -183 -139 -330 -214
-170 -87 -173 -113 -7 -69 44 11 93 24 111 28 29 8 194 86 238 114 39 24 150
111 173 135 81 85 154 218 192 347 63 215 68 250 44 336 -17 61 -43 103 -109
178 -40 44 -105 95 -105 82z"/>
<path d="M5305 11290 c-186 -35 -278 -77 -385 -176 -57 -53 -138 -169 -127
-181 3 -3 27 13 54 35 64 53 239 170 283 189 114 48 159 56 350 56 154 1 194
-2 240 -17 120 -40 150 -93 150 -265 0 -192 -35 -266 -205 -437 -60 -60 -111
-86 -125 -64 -4 6 -3 32 2 58 13 72 2 108 -46 147 -112 91 -321 80 -405 -21
-46 -57 -91 -157 -91 -205 0 -46 -14 -79 -35 -79 -21 0 -131 73 -184 123 -66
60 -111 118 -111 142 0 39 -16 48 -34 20 -17 -25 -16 -27 26 -88 81 -116 157
-181 285 -243 83 -40 134 -59 183 -65 146 -21 185 -45 143 -91 -43 -48 -91
-62 -204 -61 -96 2 -112 5 -171 32 -132 63 -240 204 -297 390 -9 30 -22 56
-29 59 -7 2 -28 -12 -48 -32 -33 -33 -36 -40 -29 -74 10 -56 68 -170 116 -227
72 -87 190 -164 324 -212 66 -23 232 -53 298 -53 64 0 169 26 222 54 37 19 75
21 75 2 0 -7 -4 -26 -9 -42 -25 -80 -34 -173 -22 -221 35 -140 45 -174 68
-235 39 -107 133 -198 295 -287 43 -23 101 -61 129 -84 129 -105 156 -113 310
-92 315 43 407 86 703 334 61 50 112 88 115 84 3 -3 0 -8 -6 -10 -7 -3 -13 -9
-13 -15 0 -11 -56 -91 -105 -150 -16 -20 -38 -50 -49 -68 l-18 -32 28 15 c16
8 63 44 104 79 41 34 98 81 125 103 90 72 204 186 240 241 44 66 52 127 18
132 -28 4 -120 -56 -194 -128 -28 -26 -69 -60 -74 -60 -2 0 16 39 42 88 85
160 93 181 96 242 1 32 -1 61 -5 65 -20 20 -68 -11 -143 -93 -202 -218 -362
-347 -528 -422 -159 -72 -360 -130 -451 -130 -176 0 -436 135 -537 280 -23 34
-24 39 -24 235 l0 200 37 57 c33 50 62 89 94 122 5 6 50 56 99 111 127 144
256 258 369 326 63 39 71 54 22 45 -39 -7 -49 6 -40 54 15 71 94 120 219 135
28 4 63 9 79 12 l30 5 -39 14 c-21 7 -50 24 -64 38 -22 22 -24 29 -15 62 14
55 69 96 139 102 64 5 72 17 18 26 -60 9 -101 7 -167 -10 -76 -20 -149 -22
-170 -5 -9 8 -16 29 -16 50 -1 52 -22 76 -67 73 -46 -3 -47 -5 -33 -32 16 -31
-3 -74 -46 -100 -38 -24 -48 -21 -128 42 -72 57 -136 83 -276 112 -128 27
-274 33 -365 16z m64 -690 c25 -13 53 -85 45 -116 -3 -13 -15 -29 -25 -34 -15
-8 -26 -2 -59 32 -62 62 -74 83 -60 107 12 23 66 29 99 11z m261 -384 c0 -39
-105 -136 -148 -136 -11 0 -102 79 -102 89 0 7 115 45 165 55 47 9 85 6 85 -8z"/>
<path d="M7001 11117 c-13 -26 -50 -70 -91 -106 -94 -84 -94 -83 -50 -351 21
-127 57 -156 204 -170 119 -12 229 -30 243 -42 6 -5 37 -12 67 -15 45 -5 56
-3 56 9 0 23 -21 43 -91 87 -72 45 -160 131 -203 200 -33 51 -65 143 -66 186
-1 38 -35 233 -42 241 -3 3 -15 -15 -27 -39z m16 -374 c71 -83 96 -122 89
-138 -8 -22 -107 -20 -136 3 -23 19 -39 77 -40 150 0 61 26 56 87 -15z"/>
<path d="M7947 10033 c-12 -11 -8 -81 7 -120 27 -76 36 -110 36 -135 0 -25 -7
-32 -94 -106 -49 -42 -181 -136 -240 -172 -31 -19 -86 -54 -121 -77 -201 -130
-385 -229 -545 -293 -30 -12 -63 -26 -72 -31 -10 -5 -34 -13 -55 -18 -21 -5
-63 -17 -93 -26 -71 -21 -223 -58 -325 -80 -44 -9 -98 -22 -120 -27 -100 -27
-227 -40 -437 -45 -262 -6 -273 -5 -523 77 -229 74 -330 136 -394 240 -28 45
-31 58 -33 151 -2 67 -7 104 -15 106 -19 7 -69 -48 -104 -112 -49 -90 -96
-149 -216 -271 -111 -111 -135 -152 -110 -182 13 -16 52 -12 115 12 60 23 86
9 78 -42 -15 -89 -17 -178 -7 -202 28 -61 76 -116 86 -100 4 6 0 13 -8 16 -10
4 -14 18 -13 46 2 38 5 41 30 43 33 1 43 -10 19 -23 -15 -9 -14 -13 13 -45 16
-20 35 -34 42 -32 7 3 12 -4 12 -15 0 -11 6 -20 13 -20 6 0 23 -12 36 -25 13
-14 29 -25 36 -25 7 0 15 -7 19 -15 3 -8 10 -15 16 -15 12 0 112 -70 255 -179
106 -81 131 -98 155 -107 8 -3 29 -12 45 -20 56 -26 260 -101 315 -116 120
-34 529 -64 661 -49 56 6 146 30 269 71 205 68 266 96 371 167 117 79 208 138
324 209 189 115 284 196 400 339 22 27 54 65 71 85 100 114 200 279 259 430
33 85 76 168 96 186 19 17 22 17 72 0 29 -10 103 -39 165 -64 98 -41 112 -50
112 -70 0 -13 -36 -99 -81 -190 -44 -92 -84 -176 -89 -187 -33 -75 -62 -136
-85 -172 -15 -25 -21 -44 -15 -48 18 -11 78 47 106 103 15 30 46 69 72 90 115
94 139 124 162 200 12 40 30 82 39 94 l18 21 46 -23 c28 -14 52 -34 59 -51 10
-22 16 -26 30 -18 10 5 18 15 18 22 0 18 -59 77 -88 88 -12 5 -58 32 -101 59
-63 40 -82 59 -95 90 -18 45 -60 79 -133 109 -29 12 -77 31 -105 42 -74 30
-149 82 -176 122 -21 32 -52 104 -73 172 -26 86 -92 179 -112 158z m142 -402
c12 -16 21 -40 21 -53 0 -38 -55 -113 -138 -186 -42 -37 -109 -101 -149 -143
-46 -48 -92 -85 -127 -102 -60 -30 -92 -66 -125 -142 -43 -98 -98 -136 -195
-133 l-65 2 -78 -61 c-127 -97 -192 -123 -309 -123 -88 0 -107 -7 -168 -59
-94 -81 -123 -90 -339 -103 -105 -7 -275 -12 -377 -12 l-185 -1 -100 41 c-55
23 -134 49 -175 59 -217 49 -317 94 -468 209 -155 117 -229 213 -239 309 -6
60 9 109 30 101 8 -3 25 -26 38 -51 121 -235 533 -403 992 -403 164 0 383 18
512 42 33 6 80 14 105 18 25 4 68 13 95 20 28 6 77 19 110 27 253 62 336 93
482 180 41 23 76 43 78 43 3 0 49 26 103 58 154 92 492 353 591 456 19 20 40
36 47 36 7 0 22 -13 33 -29z m-285 -614 c-22 -42 -54 -77 -214 -232 -166 -160
-282 -248 -470 -355 -141 -81 -326 -174 -379 -190 -14 -5 -51 -18 -81 -30 -30
-12 -64 -24 -75 -26 -11 -3 -42 -11 -70 -19 -152 -43 -199 -49 -395 -49 -200
0 -343 16 -460 51 -131 39 -239 78 -295 106 -66 33 -306 209 -344 253 -43 49
-131 257 -116 272 10 10 50 -20 146 -108 51 -47 108 -97 128 -111 34 -25 147
-85 216 -115 332 -142 425 -166 621 -159 213 8 412 25 481 41 34 8 71 14 82
14 11 0 35 6 53 14 18 8 58 24 88 36 30 12 80 33 110 47 74 33 105 47 170 73
30 12 124 56 208 97 134 66 164 86 241 157 84 77 120 104 251 189 31 20 66 47
79 61 31 33 45 23 25 -17z"/>
<path d="M6790 9812 c-14 -9 -72 -52 -130 -96 -147 -111 -234 -148 -268 -114
-15 15 -16 64 -2 73 20 13 9 25 -22 25 -38 0 -107 -23 -146 -47 -23 -15 -59
-42 -201 -151 l-25 -19 127 -12 c150 -15 204 -9 317 34 130 50 198 92 275 169
88 87 136 177 75 138z"/>
<path d="M7613 9768 c-53 -59 -147 -218 -130 -218 32 0 100 67 151 147 44 71
28 125 -21 71z"/>
<path d="M3927 11558 c-8 -28 4 -47 14 -22 11 27 11 44 0 44 -5 0 -11 -10 -14
-22z"/>
<path d="M10483 8381 c-18 -29 -16 -102 3 -129 18 -26 47 -28 88 -7 25 14 32
14 59 0 16 -8 35 -15 42 -15 7 0 20 -9 30 -20 18 -19 17 -20 -3 -20 -12 0 -22
-4 -22 -10 0 -6 -9 -6 -26 0 -30 12 -74 13 -74 2 0 -10 156 -82 176 -82 9 0
25 -5 36 -11 19 -10 69 -21 168 -35 l35 -5 -40 38 c-22 21 -55 49 -73 63 -19
14 -39 30 -46 35 -12 11 -25 19 -156 110 -47 32 -96 67 -110 76 -41 29 -73 33
-87 10z"/>
<path d="M9348 8163 c-22 -50 -47 -124 -64 -192 -21 -81 -49 -135 -126 -238
-62 -85 -134 -152 -162 -153 -14 -1 -60 -39 -54 -45 6 -7 116 15 163 32 91 34
130 61 215 153 64 68 105 103 147 124 32 17 69 38 82 48 35 26 41 23 41 -26 0
-49 22 -69 40 -36 15 28 12 70 -5 76 -8 4 -15 14 -15 24 0 27 -25 42 -80 46
-27 2 -58 8 -68 13 -22 12 -46 66 -64 145 -7 33 -18 61 -24 63 -5 2 -17 -14
-26 -34z"/>
<path d="M12180 8021 c0 -5 15 -20 33 -32 89 -61 137 -133 137 -205 0 -54 -56
-146 -147 -243 -66 -69 -93 -90 -172 -129 -52 -26 -96 -53 -99 -60 -5 -17 72
-15 123 3 22 8 46 15 53 15 7 0 43 15 80 33 90 43 176 130 221 222 30 62 34
80 35 155 1 99 -13 132 -80 179 -69 50 -184 88 -184 62z"/>
<path d="M9640 7802 c0 -15 -6 -34 -12 -40 -10 -10 -10 -15 1 -21 7 -5 11 -17
9 -26 -3 -17 -4 -18 -20 -2 -21 21 -24 21 -49 -2 -24 -22 -17 -28 28 -26 62 3
74 27 65 128 -3 28 -22 19 -22 -11z"/>
<path d="M11970 7768 c-54 -74 -87 -168 -59 -168 30 0 129 147 129 191 0 34
-38 22 -70 -23z"/>
<path d="M9425 7670 c-4 -6 10 -10 34 -10 23 0 41 5 41 10 0 6 -15 10 -34 10
-19 0 -38 -4 -41 -10z"/>
<path d="M11070 6885 c-45 -30 -136 -123 -128 -131 5 -5 93 58 184 132 40 32
-8 31 -56 -1z"/>
<path d="M8297 5614 c-3 -3 -75 -16 -160 -29 -183 -27 -249 -54 -393 -162
-130 -98 -154 -120 -242 -230 -83 -104 -101 -120 -244 -227 -155 -116 -218
-173 -218 -198 0 -10 8 -30 17 -45 13 -20 17 -49 18 -119 0 -51 5 -97 10 -102
6 -5 43 -5 85 -1 174 19 267 22 306 9 21 -7 91 -42 155 -77 65 -34 129 -63
143 -63 44 0 108 39 176 110 75 76 125 116 195 155 68 37 81 50 125 125 47 79
106 150 126 150 9 0 27 -13 41 -30 13 -16 34 -30 45 -30 20 0 69 24 100 48 9
7 38 17 65 22 39 6 44 9 26 15 -18 6 -23 15 -23 43 0 28 8 43 39 72 21 20 52
40 67 43 36 7 91 44 116 78 17 22 18 34 11 85 l-8 59 -46 3 c-40 3 -50 -1 -76
-28 -24 -24 -32 -43 -36 -83 -5 -60 -26 -82 -89 -92 -66 -11 -121 -39 -156
-79 -18 -20 -32 -41 -32 -46 0 -17 -39 -31 -58 -21 -34 18 -61 -1 -130 -93
-75 -99 -140 -160 -298 -279 -125 -94 -186 -127 -233 -127 -82 0 -176 45 -164
78 14 39 50 77 157 166 84 70 133 121 198 207 108 142 137 173 219 237 59 46
174 112 196 112 16 0 68 48 60 56 -7 7 -71 -1 -204 -25 -132 -24 -242 -111
-353 -277 -37 -56 -69 -106 -71 -110 -17 -39 -110 -162 -147 -195 -103 -91
-251 -148 -334 -130 -54 12 -78 41 -102 125 -17 62 -17 67 -2 92 22 32 84 76
189 133 45 24 96 53 112 63 17 10 41 23 55 28 14 6 93 80 175 164 154 157 218
209 315 256 59 29 160 55 251 65 89 10 126 65 63 94 -29 13 -29 13 -37 5z"/>
<path d="M5806 5557 c-18 -13 -18 -14 -2 -20 10 -4 41 -10 70 -13 40 -5 55 -3
65 9 7 9 10 21 6 27 -9 15 -118 12 -139 -3z"/>
<path d="M6595 5530 c-8 -35 0 -50 25 -50 37 0 38 44 1 67 -17 11 -20 9 -26
-17z"/>
<path d="M9165 5470 c-35 -9 -185 -86 -203 -105 -7 -8 31 -1 62 11 28 11 18
-30 -20 -86 -19 -28 -34 -53 -32 -55 8 -8 81 25 124 56 54 39 114 120 114 155
0 29 -7 33 -45 24z"/>
<path d="M3050 5385 c0 -8 7 -15 15 -15 8 0 15 7 15 15 0 8 -7 15 -15 15 -8 0
-15 -7 -15 -15z"/>
<path d="M5752 5384 c-12 -8 -22 -18 -22 -23 0 -17 82 -132 92 -129 6 2 20 20
31 39 45 78 -30 163 -101 113z"/>
<path d="M6065 5331 c-3 -6 6 -16 20 -21 37 -14 47 -12 43 8 -4 19 -52 29 -63
13z"/>
<path d="M6503 5293 c-15 -3 -23 -12 -23 -24 0 -17 7 -19 60 -19 52 0 60 2 60
19 0 26 -37 36 -97 24z"/>
<path d="M6910 5251 c0 -11 95 -25 131 -19 21 4 19 6 -16 16 -48 14 -115 16
-115 3z"/>
<path d="M5602 5134 c-12 -8 -22 -23 -22 -32 0 -40 108 -122 160 -122 39 0 65
46 55 99 -13 74 -9 71 -93 71 -54 0 -84 -5 -100 -16z"/>
<path d="M5958 5084 c-13 -4 -18 -16 -18 -38 0 -29 5 -35 41 -51 51 -23 136
-26 149 -5 17 27 11 57 -16 75 -26 17 -123 29 -156 19z"/>
<path d="M6354 5054 c-8 -33 4 -44 58 -55 103 -22 118 -22 138 -4 25 23 25 40
0 65 -17 17 -33 20 -105 20 -83 0 -85 -1 -91 -26z"/>
<path d="M5560 4849 c-35 -14 -39 -25 -33 -98 6 -78 -10 -106 -80 -139 -24
-11 -49 -27 -55 -35 -10 -12 -6 -15 24 -20 92 -15 172 34 215 131 26 60 26
148 0 162 -24 12 -38 12 -71 -1z"/>
<path d="M3469 4814 c-42 -48 -79 -152 -58 -165 38 -23 82 52 77 131 -3 49 -4
51 -19 34z"/>
<path d="M5136 4807 c-2 -6 -8 -37 -14 -67 -6 -30 -13 -63 -17 -72 -13 -33 32
-20 75 20 59 57 55 96 -13 121 -21 8 -29 8 -31 -2z"/>
<path d="M5967 4800 c-18 -15 -34 -44 -48 -90 -11 -38 -27 -74 -34 -80 -7 -6
-43 -16 -79 -22 -36 -6 -66 -14 -66 -18 0 -30 113 -50 172 -31 43 14 83 68
109 147 16 47 17 61 6 82 -16 34 -29 37 -60 12z"/>
<path d="M6379 4803 c0 -4 0 -27 1 -50 2 -55 -10 -75 -75 -123 -30 -22 -55
-47 -55 -55 0 -33 72 -29 143 7 52 26 79 86 75 166 l-3 57 -42 3 c-24 2 -43 0
-44 -5z"/>
<path d="M6775 4800 c-3 -5 4 -32 16 -61 28 -63 19 -96 -31 -121 -52 -26 -47
-52 10 -56 93 -7 137 46 128 156 -4 42 -10 60 -28 74 -24 19 -85 25 -95 8z"/>
<path d="M8427 4712 c-11 -12 -17 -36 -17 -66 0 -64 -25 -104 -78 -127 -30
-13 -42 -24 -40 -36 7 -37 112 -39 155 -4 30 25 63 112 63 166 0 70 -47 107
-83 67z"/>
<path d="M2692 4438 c-7 -7 -12 -15 -12 -19 0 -4 62 -10 138 -13 166 -8 493
-45 507 -56 18 -15 134 -29 306 -39 177 -10 1313 0 1324 11 21 21 -13 27 -116
21 -80 -4 -142 -2 -222 10 -88 13 -246 19 -727 27 -338 5 -635 14 -660 19
-186 42 -253 50 -385 51 -97 0 -145 -4 -153 -12z"/>
<path d="M2620 4212 c0 -11 117 -28 127 -18 11 10 -1 14 -65 22 -40 4 -62 3
-62 -4z"/>
<path d="M12335 2422 c-29 -17 -88 -36 -140 -46 -106 -21 -143 -33 -290 -94
-109 -45 -111 -46 -216 -44 -117 3 -145 -6 -264 -77 -113 -69 -135 -73 -210
-41 -64 27 -79 26 -149 -18 -88 -55 -162 -83 -252 -97 -31 -5 -60 -22 -110
-63 -90 -75 -143 -115 -175 -130 -16 -9 -72 -14 -150 -16 l-124 -2 -180 -86
c-206 -99 -234 -111 -330 -143 -38 -12 -81 -27 -95 -33 -14 -5 -43 -17 -65
-25 -22 -9 -71 -28 -110 -43 -103 -40 -159 -52 -400 -89 -90 -13 -133 -22
-257 -51 -51 -13 -91 -15 -175 -9 -236 15 -238 15 -382 -71 -43 -25 -49 -26
-130 -19 -121 11 -136 9 -223 -19 -45 -15 -123 -30 -190 -36 -179 -17 -282
-59 -441 -178 l-102 -76 -245 -2 c-166 -1 -286 -7 -370 -18 -69 -9 -172 -21
-230 -26 -58 -6 -115 -12 -127 -15 -12 -3 -24 -1 -27 3 -6 10 51 56 98 78 84
41 43 69 -81 55 -49 -6 -142 -13 -209 -16 -179 -10 -234 12 -234 93 0 39 24
88 93 191 67 99 74 112 94 169 55 163 55 249 -4 344 -28 46 -96 118 -111 118
-21 0 -13 -45 17 -101 57 -107 50 -172 -38 -353 -85 -177 -101 -228 -107 -338
-4 -80 -37 -143 -81 -154 -30 -8 -108 5 -223 36 -146 40 -408 35 -592 -11 -77
-20 -194 -30 -518 -44 -360 -16 -606 -12 -710 11 -36 8 -92 21 -125 29 -33 8
-91 21 -130 29 -38 8 -106 22 -150 32 -44 9 -105 23 -136 30 -74 18 -151 18
-194 -1 -36 -14 -38 -17 -50 -70 -7 -28 -8 -29 -19 -11 -48 80 -118 125 -206
133 -82 8 -95 -8 -86 -104 9 -93 -10 -99 -49 -15 -15 31 -34 72 -42 89 -22 47
-139 130 -208 147 -36 9 -97 -10 -130 -40 -25 -23 -27 -30 -23 -80 3 -30 2
-54 -2 -54 -20 0 -80 103 -114 193 -22 58 -47 77 -103 77 -33 0 -50 -7 -74
-28 -29 -26 -32 -34 -37 -105 -2 -42 -8 -77 -12 -77 -10 0 -40 35 -40 46 0 22
-41 93 -69 120 -40 38 -109 74 -141 74 -14 0 -33 -9 -43 -20 -24 -29 -136 -27
-289 5 -141 29 -175 31 -207 9 -19 -14 -40 -16 -125 -10 -369 22 -432 20 -467
-15 -34 -34 3 -99 100 -173 113 -87 384 -222 571 -286 14 -5 50 -18 80 -30
114 -44 204 -60 348 -60 74 0 162 5 193 12 55 11 117 2 154 -22 6 -4 42 -25
80 -46 63 -35 77 -39 140 -38 45 1 81 7 100 17 39 22 139 22 196 1 33 -12 83
-17 194 -18 134 -1 157 1 215 23 73 26 114 25 302 -4 57 -8 154 -23 217 -33
63 -9 116 -22 118 -28 4 -13 -39 -30 -162 -64 -44 -13 -111 -33 -150 -45 -38
-12 -104 -32 -145 -44 -41 -13 -86 -26 -100 -31 -14 -4 -54 -16 -90 -25 -207
-55 -275 -74 -325 -90 -22 -7 -67 -20 -100 -29 -260 -70 -421 -124 -491 -162
-51 -28 -52 -27 51 -4 22 5 103 25 180 46 153 40 230 58 345 79 41 8 109 21
150 30 83 16 92 18 233 46 54 11 141 30 195 43 143 36 237 56 577 126 155 31
245 50 310 65 102 23 355 49 367 37 7 -7 -4 -12 -34 -17 -23 -4 -63 -13 -88
-20 -25 -7 -70 -18 -100 -25 -30 -7 -80 -20 -110 -30 -30 -10 -102 -32 -160
-49 -132 -40 -361 -114 -465 -150 -44 -16 -129 -43 -190 -61 -254 -75 -334
-102 -350 -121 -11 -11 -13 -19 -7 -19 7 0 12 5 12 10 0 6 14 10 30 10 17 0
59 6 93 14 34 8 125 29 202 46 77 18 166 38 198 46 32 8 68 14 79 14 21 0 127
23 213 45 28 8 84 21 125 31 69 15 95 22 220 53 80 21 174 42 225 51 45 8 107
21 305 66 36 8 88 19 115 24 52 10 139 29 253 56 37 9 96 22 132 29 117 23
223 46 309 67 46 11 106 24 135 28 51 9 177 30 291 50 71 12 175 13 175 2 0
-16 -199 -71 -430 -118 -76 -15 -145 -31 -365 -84 -66 -16 -160 -38 -210 -50
-116 -28 -334 -89 -405 -115 -19 -7 -80 -26 -135 -43 -55 -17 -154 -50 -220
-72 l-120 -40 70 4 c177 11 339 32 455 61 58 14 151 34 285 61 44 8 107 22
140 29 56 13 113 23 340 61 50 9 119 21 155 29 36 7 106 21 155 30 50 9 110
21 135 25 25 5 97 18 160 30 258 47 298 54 400 76 198 41 291 54 380 53 102
-1 95 -4 -60 -29 -41 -6 -136 -24 -210 -40 -74 -16 -153 -32 -175 -36 -66 -10
-252 -61 -383 -103 -67 -22 -171 -52 -230 -66 -59 -14 -118 -29 -132 -34 -14
-4 -50 -16 -80 -24 -30 -9 -118 -37 -195 -61 -77 -24 -175 -54 -218 -67 -105
-32 -98 -56 8 -28 52 14 195 36 314 49 52 6 110 14 130 19 44 11 156 34 271
56 116 22 225 45 285 61 28 7 82 20 120 29 39 9 97 22 130 30 184 42 373 75
435 75 35 0 201 21 316 40 103 17 355 40 424 39 l65 -1 -70 -13 c-38 -8 -113
-23 -165 -34 -52 -12 -113 -25 -135 -30 -22 -5 -65 -14 -95 -21 -30 -7 -116
-25 -190 -41 -170 -37 -220 -51 -400 -106 -274 -85 -340 -109 -340 -125 0 -14
5 -23 12 -21 4 2 76 9 160 18 259 25 311 32 358 44 89 24 156 40 230 55 163
33 197 39 250 46 30 4 78 12 105 18 28 6 97 18 155 27 58 10 139 23 180 30 41
7 118 21 170 30 52 9 113 20 135 25 22 5 67 11 100 15 56 6 135 17 335 50 175
29 228 36 330 46 58 5 128 14 155 19 67 12 142 13 130 1 -6 -5 -39 -14 -75
-20 -124 -22 -206 -39 -365 -79 -141 -36 -244 -59 -510 -118 -104 -23 -193
-43 -255 -59 -30 -8 -84 -21 -120 -29 -213 -49 -258 -61 -290 -74 -54 -22 -18
-31 80 -21 47 5 148 13 225 18 135 9 187 16 340 46 39 7 115 21 170 30 55 9
132 23 170 31 39 8 83 14 98 14 15 0 56 6 90 14 34 8 114 21 177 30 202 28
322 45 450 61 69 9 152 20 185 25 33 5 89 11 125 14 229 20 335 27 490 36 96
5 225 19 285 30 61 11 133 25 162 30 28 5 68 13 90 19 96 25 175 41 206 41 55
0 138 30 135 49 -4 19 -95 18 -418 -4 -228 -16 -950 -39 -958 -30 -15 14 33
38 114 56 49 11 115 26 147 34 168 43 295 71 359 80 50 7 70 21 47 36 -19 12
-167 11 -291 -1 -139 -15 -281 -31 -348 -41 -30 -4 -109 -13 -175 -19 -66 -6
-174 -17 -240 -25 -66 -8 -154 -17 -195 -20 -41 -3 -94 -8 -117 -11 -26 -4
-43 -2 -43 4 0 16 52 33 308 98 75 19 171 48 212 65 159 66 253 98 385 132
175 46 286 62 495 72 111 6 216 20 365 51 39 8 79 14 91 14 11 0 40 6 65 14
24 7 71 21 104 31 33 10 78 23 100 30 22 7 69 21 105 30 81 21 345 104 385
121 151 62 199 84 260 115 78 40 154 81 200 108 61 36 173 96 290 156 132 67
132 67 292 172 202 133 292 236 296 337 2 48 -2 58 -27 85 -36 38 -48 38 -111
3z m-705 -408 c0 -20 -31 -51 -107 -104 -82 -57 -113 -71 -113 -51 0 10 135
132 165 149 21 12 55 16 55 6z m-440 -81 c0 -31 -41 -100 -86 -147 -75 -76
-99 -55 -43 38 36 59 109 137 121 130 4 -3 8 -12 8 -21z m-390 -192 c0 -10
-10 -31 -22 -46 -23 -29 -134 -115 -149 -115 -24 0 -2 37 62 105 70 74 109 94
109 56z m-497 -197 c-7 -18 -62 -48 -71 -39 -9 9 59 66 69 59 5 -2 6 -11 2
-20z m-8873 -450 c0 -8 -4 -14 -9 -14 -8 0 -16 16 -39 75 -2 6 8 -3 22 -18 14
-15 26 -35 26 -43z m-415 13 c43 -48 82 -113 72 -124 -9 -8 -94 59 -123 99
-54 73 -13 93 51 25z m7515 -12 c0 -18 -5 -25 -20 -25 -22 0 -26 20 -8 38 19
19 28 14 28 -13z m-1256 -231 c9 -3 16 -15 16 -25 0 -16 -8 -19 -45 -19 -50 0
-57 11 -23 34 25 18 30 19 52 10z m1624 -201 c-15 -2 -42 -2 -60 0 -18 2 -6 4
27 4 33 0 48 -2 33 -4z"/>
<path d="M1040 2425 c-104 -17 -190 -43 -285 -85 -98 -43 -229 -111 -290 -149
-173 -109 -295 -284 -295 -424 0 -41 5 -53 30 -79 25 -25 33 -28 45 -18 9 7
15 29 15 51 0 116 148 287 300 349 82 33 118 46 190 69 36 11 79 25 95 31 301
108 450 134 695 119 289 -17 416 -28 470 -39 30 -6 89 -18 130 -27 41 -8 115
-35 165 -59 50 -24 98 -44 109 -44 22 0 86 62 86 83 0 11 -17 19 -57 27 -32 6
-76 17 -98 24 -22 7 -67 21 -100 31 -33 9 -76 23 -95 30 -146 56 -342 90 -630
110 -244 17 -379 17 -480 0z"/>
<path d="M528 1851 c-49 -55 -77 -124 -58 -146 6 -8 23 -16 38 -19 33 -7 142
10 156 24 20 20 9 106 -19 150 -35 55 -61 54 -117 -9z"/>
<path d="M895 1783 c-61 -16 -87 -71 -44 -93 32 -18 108 -18 119 0 17 27 11
68 -12 84 -23 16 -29 17 -63 9z"/>
<path d="M10570 520 c-30 -5 -158 -11 -285 -15 -243 -6 -507 -26 -690 -51
-325 -44 -418 -58 -565 -89 -36 -8 -108 -21 -160 -29 -328 -54 -320 -52 -320
-68 0 -18 360 4 610 37 58 8 184 21 280 29 96 8 252 22 345 31 94 8 211 15
261 15 50 0 116 5 145 10 30 6 138 14 242 19 103 4 190 11 194 15 4 4 1 11 -7
16 -8 5 -12 12 -8 15 10 11 185 24 328 26 105 1 124 3 87 9 -27 5 -63 14 -80
20 -40 15 -304 22 -377 10z"/>
<path d="M11880 460 c-34 -7 -34 -7 13 -9 30 0 46 3 42 9 -3 6 -9 9 -13 9 -4
-1 -23 -5 -42 -9z"/>
<path d="M11655 430 c-8 -13 75 -13 95 0 11 7 0 10 -37 10 -28 0 -55 -4 -58
-10z"/>
<path d="M11430 413 c-30 -2 -112 -10 -182 -18 -161 -19 -323 -19 -413 0 -79
17 -131 19 -139 6 -3 -5 27 -12 67 -16 39 -4 78 -12 85 -18 20 -16 341 -21
437 -7 44 6 125 18 180 25 55 7 101 14 103 14 2 1 0 6 -3 11 -6 10 -17 10
-135 3z"/>
</g>
</svg>
