<?xml version="1.0"?>
<svg xmlns="http://www.w3.org/2000/svg" xmlns:xlink="http://www.w3.org/1999/xlink" version="1.1" id="Capa_1" x="0px" y="0px" viewBox="0 0 356.484 356.484" style="enable-background:new 0 0 356.484 356.484;" xml:space="preserve" width="512px" height="512px" class=""><g><path d="M354.239,321.64L189.847,22.478c-2.79-5.078-7.01-7.991-11.578-7.991c-4.584,0-8.824,2.931-11.631,8.04L2.245,321.64  c-2.749,5.002-2.984,10.138-0.646,14.09c2.356,3.983,7.023,6.267,12.806,6.267H342.08c5.782,0,10.449-2.284,12.806-6.267  C357.224,331.778,356.988,326.642,354.239,321.64z M154.064,93.621c0.922-0.955,2.166-1.624,3.504-1.624h40.897  c1.338,0,2.581,0.669,3.501,1.624c0.92,0.955,1.4,2.289,1.35,3.627l-5.174,139.618c-0.102,2.735-2.411,5.132-5.147,5.132h-30.298  c-2.738,0-5.043-2.363-5.138-5.099l-4.851-139.584C152.661,95.977,153.143,94.575,154.064,93.621z M178.188,315.435  c-15.386,0-26.988-12.19-26.988-28.355c0-16.36,11.455-28.697,26.646-28.697c15.689,0,26.646,11.801,26.646,28.697  C204.491,303.775,193.675,315.435,178.188,315.435z" data-original="#000000" class="active-path" data-old_color="#E6C402" fill="#E6C401"/></g> </svg>
